<svg xmlns="http://www.w3.org/2000/svg"  >

<symbol id="icon-logo" viewBox="0 0 99 32">
<path fill="#d07cc6" style="fill: var(--color1, #d07cc6)" d="M40.881 21.682c-0.854-1.016-1.077-5.224-0.854-7.582 0.017-0.178-0.002-0.358-0.054-0.529s-0.139-0.33-0.253-0.468c-0.114-0.138-0.255-0.252-0.413-0.335s-0.331-0.135-0.51-0.152h-0.163c-0.34 0.001-0.668 0.128-0.92 0.358s-0.409 0.544-0.442 0.882c0 0.071-0.62 7.115 1.494 9.605 0.126 0.147 0.282 0.265 0.457 0.348s0.366 0.127 0.559 0.13c0.324 0.002 0.639-0.113 0.884-0.325 0.275-0.234 0.446-0.566 0.478-0.925 0.026-0.177 0.017-0.357-0.029-0.53s-0.126-0.335-0.235-0.476z"></path>
<path fill="#d07cc6" style="fill: var(--color1, #d07cc6)" d="M38.432 11.661c0.193 0.056 0.396 0.070 0.595 0.042s0.39-0.099 0.56-0.206c0.17-0.108 0.315-0.25 0.426-0.418s0.185-0.357 0.217-0.556c0.052-0.201 0.063-0.411 0.032-0.616s-0.105-0.402-0.215-0.578-0.256-0.328-0.427-0.446c-0.171-0.118-0.365-0.2-0.569-0.24-0.193-0.054-0.395-0.067-0.593-0.037s-0.387 0.101-0.555 0.21c-0.168 0.109-0.311 0.252-0.42 0.42s-0.18 0.357-0.21 0.555c-0.054 0.199-0.067 0.407-0.037 0.611s0.101 0.4 0.21 0.575 0.252 0.327 0.422 0.444c0.17 0.118 0.362 0.199 0.564 0.239z"></path>
<path fill="#d07cc6" style="fill: var(--color1, #d07cc6)" d="M70.478 10.025c-0.095-0.943-0.375-1.858-0.823-2.693-0.465-0.872-1.135-1.619-1.951-2.175-0.817-0.593-1.772-0.967-2.775-1.088-0.993-0.093-1.994 0.057-2.917 0.437-1.569 0.695-2.959 1.738-4.065 3.049-0.637 0.713-1.218 1.474-1.738 2.277l-0.295-0.427c-0.498-0.6-1.041-1.161-1.626-1.677-1.236-1.164-2.73-2.017-4.36-2.49-1.017-0.299-2.101-0.279-3.105 0.058s-1.883 0.972-2.515 1.823c-1.060 1.481-1.622 3.261-1.606 5.082 0.033 3.274 1.053 6.462 2.927 9.147 1.709 2.572 3.934 4.759 6.535 6.423 0.283 0.171 0.619 0.231 0.943 0.166s0.612-0.249 0.808-0.515c0.195-0.267 0.283-0.597 0.247-0.926s-0.194-0.632-0.443-0.849c-2.101-1.688-3.892-3.727-5.295-6.027-1.357-2.175-2.104-4.674-2.165-7.236-0.032-1.084 0.277-2.151 0.884-3.049 0.212-0.329 0.524-0.58 0.89-0.718s0.767-0.153 1.143-0.045c1.161 0.318 2.249 0.86 3.202 1.596 1.069 0.757 2.056 1.622 2.947 2.582 0.094 0.143 0.215 0.268 0.356 0.366 0.127 0.084 0.27 0.141 0.42 0.17s0.304 0.027 0.453-0.004c0.149-0.031 0.291-0.091 0.417-0.177s0.233-0.196 0.317-0.323l0.091-0.142c0.753-1.146 1.625-2.209 2.602-3.171 0.88-0.911 1.943-1.625 3.12-2.094 0.45-0.193 0.944-0.259 1.429-0.193s0.943 0.263 1.325 0.569c0.417 0.307 0.76 0.702 1.006 1.157s0.389 0.959 0.417 1.476c0.089 1.274-0.062 2.553-0.447 3.771-0.387 1.33-0.883 2.625-1.484 3.872-1.213 2.545-2.728 4.933-4.513 7.115-0.222 0.281-0.328 0.636-0.297 0.993s0.198 0.688 0.465 0.926c0.268 0.238 0.616 0.364 0.974 0.353s0.698-0.158 0.951-0.412c2.115-2.278 3.891-4.849 5.275-7.633 0.721-1.401 1.307-2.868 1.748-4.38 0.485-1.606 0.664-3.288 0.528-4.96z"></path>
<path fill="#d07cc6" style="fill: var(--color1, #d07cc6)" d="M93.031 15.015c-0.056-0.184-0.124-0.364-0.203-0.539-0.083-0.194-0.181-0.381-0.295-0.559-0.121-0.192-0.265-0.369-0.426-0.528-0.155-0.168-0.333-0.311-0.529-0.427-0.667-0.425-1.435-0.664-2.225-0.691-1.318-0.054-2.634 0.135-3.883 0.559-0.292 0.088-0.538 0.288-0.683 0.557s-0.177 0.584-0.089 0.877c0.087 0.292 0.287 0.538 0.556 0.683s0.584 0.177 0.877 0.089h0.071c0.959-0.298 1.965-0.422 2.968-0.366 0.361 0.013 0.712 0.122 1.016 0.315 0.239 0.191 0.401 0.461 0.457 0.762 0.051 0.198 0.092 0.398 0.122 0.6-1.137-0.116-2.285-0.085-3.415 0.091-0.844 0.132-1.64 0.482-2.307 1.016-0.201 0.159-0.375 0.347-0.518 0.559-0.162 0.205-0.289 0.435-0.376 0.681-0.173 0.461-0.255 0.951-0.244 1.443 0 0.244 0.061 0.488 0.102 0.722 0.063 0.255 0.159 0.501 0.284 0.732 0.237 0.459 0.586 0.851 1.016 1.138 0.727 0.432 1.545 0.687 2.388 0.742 1.057 0.058 2.118-0.003 3.161-0.183 0.19 0.18 0.432 0.298 0.691 0.335 0.343 0.049 0.693-0.040 0.971-0.247s0.463-0.517 0.513-0.861c0.184-1.201 0.293-2.413 0.325-3.628 0.093-1.3-0.016-2.606-0.325-3.872zM87.949 20.94c-0.426-0.013-0.844-0.124-1.219-0.325-0.108-0.058-0.196-0.145-0.255-0.251s-0.087-0.227-0.080-0.349c-0.013-0.13 0.006-0.261 0.056-0.381s0.128-0.227 0.229-0.31c0.338-0.237 0.729-0.387 1.139-0.437 1.014-0.138 2.042-0.117 3.049 0.061 0 0.569-0.081 1.148-0.152 1.728-0.902 0.211-1.828 0.3-2.754 0.264h-0.010z"></path>
<path fill="#d07cc6" style="fill: var(--color1, #d07cc6)" d="M26.378 17.159c-0.036-0.298-0.104-0.591-0.203-0.874-0.18-0.508-0.434-0.988-0.752-1.423-0.628-0.877-1.501-1.549-2.51-1.931-0.974-0.357-2.021-0.469-3.049-0.325-0.417 0.045-0.829 0.13-1.23 0.254-0.115-0.145-0.258-0.266-0.42-0.355s-0.341-0.145-0.525-0.163c-0.179-0.018-0.36-0.001-0.532 0.051s-0.332 0.138-0.471 0.252c-0.139 0.114-0.254 0.255-0.338 0.414s-0.136 0.333-0.153 0.512c-0.271 4.596-0.213 9.205 0.173 13.792 0.023 0.338 0.173 0.655 0.42 0.887s0.573 0.362 0.911 0.364h0.132c0.363-0.029 0.699-0.201 0.935-0.478 0.12-0.139 0.21-0.3 0.266-0.475s0.076-0.359 0.059-0.541c0-0.356-0.132-1.89-0.224-3.872 0.488 0.078 0.98 0.122 1.474 0.132h0.132c0.92 0.010 1.835-0.142 2.704-0.447 1.032-0.388 1.909-1.102 2.5-2.033 0.555-0.917 0.827-1.978 0.783-3.049-0.015-0.232-0.042-0.462-0.081-0.691zM18.796 15.726c0.987-0.398 2.079-0.452 3.1-0.152 0.494 0.182 0.924 0.505 1.235 0.93s0.49 0.932 0.513 1.458c0.082 0.531-0.021 1.074-0.291 1.538s-0.691 0.822-1.193 1.013c-1.080 0.402-2.246 0.517-3.384 0.335-0.041-1.687-0.051-3.486 0.020-5.122z"></path>
<path fill="#d07cc6" style="fill: var(--color1, #d07cc6)" d="M97.584 23.644c-0.182-0-0.362-0.041-0.527-0.118s-0.311-0.19-0.428-0.329c-1.829-2.145-1.128-10.774-0.742-14.392 0.037-0.346 0.209-0.664 0.479-0.883 0.134-0.109 0.288-0.19 0.454-0.239s0.339-0.065 0.51-0.047c0.171 0.018 0.337 0.070 0.489 0.152s0.285 0.194 0.394 0.328c0.108 0.134 0.19 0.288 0.239 0.453s0.065 0.339 0.047 0.51c-0.631 5.834-0.57 11.526 0.122 12.42 0.154 0.193 0.251 0.426 0.279 0.672s-0.013 0.494-0.119 0.718c-0.106 0.223-0.272 0.413-0.48 0.546s-0.45 0.206-0.697 0.209h-0.020z"></path>
<path fill="#ff5f4e" style="fill: var(--color2, #ff5f4e)" d="M57.763 31.673c-0.265-0.001-0.524-0.083-0.742-0.234l-2.206-1.494c-0.291-0.197-0.492-0.501-0.559-0.846s0.006-0.702 0.203-0.994c0.197-0.291 0.501-0.492 0.846-0.559s0.702 0.006 0.993 0.203l1.342 0.905 1.017-0.894c0.262-0.235 0.607-0.357 0.959-0.339s0.682 0.172 0.921 0.431c0.119 0.128 0.21 0.278 0.27 0.442s0.086 0.338 0.077 0.512c-0.009 0.174-0.052 0.345-0.127 0.502s-0.182 0.298-0.312 0.414l-1.788 1.606c-0.246 0.221-0.564 0.344-0.895 0.346z"></path>
<path fill="#d07cc6" style="fill: var(--color1, #d07cc6)" d="M81.891 16.661c-0.062-0.668-0.255-1.318-0.569-1.911-0.338-0.672-0.869-1.227-1.524-1.596-0.628-0.335-1.322-0.526-2.033-0.559-0.612-0.032-1.225 0.002-1.829 0.102-0.645 0.12-1.266 0.343-1.84 0.661-1.178 0.69-2.044 1.808-2.419 3.12-0.176 0.608-0.268 1.237-0.274 1.87 0 0.305 0 0.61 0.051 0.915 0.044 0.345 0.119 0.685 0.223 1.016 0.425 1.292 1.317 2.379 2.501 3.049 1.1 0.625 2.358 0.918 3.621 0.842s2.476-0.516 3.494-1.269c0.221-0.184 0.366-0.443 0.406-0.728s-0.026-0.574-0.187-0.812c-0.161-0.238-0.404-0.408-0.684-0.477s-0.574-0.031-0.827 0.105c-0.661 0.413-1.423 0.637-2.202 0.648s-1.546-0.192-2.219-0.587c-0.518-0.301-0.93-0.756-1.179-1.301l6.261-0.234c0.262-0.010 0.513-0.109 0.71-0.281s0.33-0.406 0.377-0.664c0.127-0.628 0.175-1.27 0.142-1.911zM75.519 15.645c0.671-0.355 1.426-0.523 2.185-0.488 0.29-0.021 0.58 0.037 0.84 0.167s0.479 0.329 0.634 0.575c0.2 0.374 0.314 0.787 0.336 1.209h-5.082c0.172-0.596 0.56-1.107 1.088-1.433v-0.030z"></path>
<path fill="#d07cc6" style="fill: var(--color1, #d07cc6)" d="M35.779 22.363c-0.054-0.289-0.22-0.545-0.462-0.712s-0.539-0.233-0.829-0.182c-0.438 0.098-0.893 0.098-1.331 0-0.135-0.045-0.259-0.118-0.364-0.215s-0.189-0.214-0.245-0.344c-0.338-1.023-0.506-2.094-0.498-3.171 0-0.844 0-1.768 0-2.714 0.508 0 1.016 0 1.514 0h-0.010c0.324-0.009 0.63-0.147 0.852-0.382s0.342-0.549 0.332-0.873c-0.009-0.323-0.147-0.63-0.382-0.852s-0.549-0.342-0.873-0.332l-1.484 0.081c0-1.016 0.061-2.033 0.102-2.978v-0.091c-0.004-0.348-0.139-0.682-0.38-0.934s-0.568-0.403-0.916-0.422c-0.348-0.019-0.69 0.094-0.957 0.318s-0.439 0.54-0.481 0.886c-0.102 1.26-0.173 2.429-0.224 3.506l-1.016 0.132c-0.259 0.047-0.49 0.193-0.644 0.408s-0.218 0.48-0.179 0.741c0.010 0.135 0.047 0.266 0.109 0.386s0.146 0.227 0.249 0.314c0.103 0.087 0.223 0.153 0.351 0.193s0.264 0.055 0.399 0.042h0.661c0 1.016 0 1.982 0.081 2.836 0 0.62 0.102 1.291 0.213 2.033 0.1 0.821 0.367 1.613 0.783 2.327 0.262 0.43 0.608 0.803 1.016 1.098 0.602 0.4 1.31 0.612 2.033 0.61 0.64-0.009 1.272-0.144 1.86-0.396 0.261-0.091 0.479-0.275 0.613-0.517s0.172-0.525 0.109-0.794z"></path>
<path fill="#d07cc6" style="fill: var(--color1, #d07cc6)" d="M12.941 8.744c-0.513-1.094-1.31-2.031-2.307-2.714-1.019-0.639-2.202-0.968-3.405-0.945h-0.102c-1.2-0.014-2.385 0.272-3.446 0.833-1.048 0.627-1.894 1.54-2.439 2.632-0.872 1.926-1.292 4.026-1.23 6.139-0.097 2.138 0.343 4.266 1.281 6.19 0.552 1.054 1.373 1.945 2.378 2.582 1.008 0.63 2.166 0.981 3.354 1.016h0.457c1.066 0.014 2.118-0.253 3.049-0.772 1.044-0.64 1.889-1.559 2.439-2.653 0.919-1.926 1.355-4.047 1.27-6.18 0.002-2.112-0.441-4.2-1.301-6.129zM11.112 14.923c0.092 1.651-0.164 3.303-0.752 4.848-0.242 0.628-0.658 1.175-1.199 1.575-0.617 0.347-1.331 0.482-2.033 0.386-0.707-0.006-1.397-0.215-1.988-0.602s-1.058-0.937-1.345-1.583c-0.315-0.721-0.524-1.485-0.62-2.267-0.1-0.853-0.138-1.713-0.112-2.571-0.089-1.657 0.192-3.313 0.823-4.848 0.266-0.627 0.712-1.161 1.281-1.535 0.6-0.336 1.274-0.514 1.962-0.518 0.686-0.006 1.356 0.204 1.915 0.6s0.981 0.957 1.205 1.605c0.625 1.559 0.919 3.231 0.864 4.909z"></path>
<path fill="#ff5f4e" style="fill: var(--color2, #ff5f4e)" d="M80.926 5.359c0-0.356 0-0.711 0-1.077s0-0.732 0-1.016c0.013-0.091 0.006-0.183-0.018-0.271s-0.068-0.17-0.126-0.241-0.131-0.129-0.213-0.17c-0.081-0.041-0.171-0.065-0.263-0.070-0.086-0.011-0.173-0.006-0.257 0.017s-0.163 0.061-0.232 0.114c-0.069 0.053-0.127 0.119-0.17 0.194s-0.072 0.158-0.083 0.244c-0.057 0.397-0.084 0.798-0.081 1.199-0.020 0.393-0.020 0.786 0 1.179 0.060 0.799 0.216 1.587 0.468 2.348 0.020 0.076 0.056 0.147 0.104 0.21s0.108 0.115 0.177 0.154c0.069 0.039 0.144 0.064 0.222 0.074s0.158 0.004 0.233-0.016c0.076-0.021 0.148-0.056 0.21-0.104s0.115-0.108 0.154-0.177c0.040-0.068 0.065-0.144 0.074-0.222s0.005-0.158-0.016-0.234c-0.113-0.706-0.174-1.419-0.183-2.134z"></path>
<path fill="#ff5f4e" style="fill: var(--color2, #ff5f4e)" d="M80.306 2.117c0.088 0.022 0.179 0.026 0.269 0.010s0.174-0.050 0.249-0.101 0.138-0.117 0.186-0.194c0.047-0.077 0.078-0.164 0.090-0.253 0.030-0.089 0.041-0.184 0.034-0.278s-0.034-0.185-0.078-0.269c-0.044-0.083-0.104-0.157-0.176-0.217s-0.156-0.104-0.247-0.131c-0.088-0.022-0.179-0.026-0.268-0.010s-0.175 0.050-0.249 0.101c-0.075 0.051-0.138 0.117-0.186 0.194s-0.078 0.164-0.090 0.253c-0.030 0.089-0.041 0.184-0.034 0.278s0.034 0.185 0.077 0.269c0.044 0.083 0.104 0.157 0.176 0.217s0.157 0.104 0.247 0.131z"></path>
<path fill="#ff5f4e" style="fill: var(--color2, #ff5f4e)" d="M86.028 0.003c-0.173 0.018-0.333 0.104-0.443 0.239s-0.163 0.309-0.146 0.482c0 0 0.081 0.864 0.163 2.033-0.252-0.044-0.507-0.068-0.763-0.071-0.482-0.007-0.961 0.075-1.413 0.244-0.505 0.199-0.933 0.556-1.219 1.016-0.269 0.461-0.397 0.991-0.366 1.525v0.366c0.027 0.145 0.065 0.287 0.112 0.427 0.098 0.255 0.231 0.495 0.397 0.711 0.319 0.427 0.758 0.749 1.26 0.925 0.489 0.172 1.012 0.22 1.524 0.142 0.214-0.034 0.425-0.085 0.63-0.152 0.055 0.073 0.126 0.134 0.206 0.178s0.17 0.070 0.262 0.076c0.166 0.003 0.326-0.057 0.449-0.169s0.198-0.266 0.211-0.431c0.116-2.318 0.069-4.641-0.142-6.952-0.018-0.174-0.104-0.333-0.24-0.444s-0.308-0.163-0.482-0.146zM84.108 6.599c-0.257-0.088-0.481-0.249-0.646-0.465s-0.262-0.474-0.279-0.745c-0.044-0.272 0.006-0.55 0.141-0.79s0.347-0.427 0.601-0.531c0.55-0.224 1.151-0.295 1.738-0.203 0 0.854 0.061 1.779 0 2.622-0.491 0.21-1.039 0.25-1.555 0.112z"></path>
<path fill="#ff5f4e" style="fill: var(--color2, #ff5f4e)" d="M76.749 4.943c0.793-0.823 1.606-1.829 1.647-1.88 0.054-0.068 0.094-0.147 0.117-0.231s0.029-0.171 0.017-0.258c-0.011-0.086-0.040-0.169-0.084-0.244s-0.103-0.14-0.172-0.192c-0.136-0.11-0.308-0.162-0.482-0.144s-0.332 0.102-0.443 0.236c-0.628 0.799-1.307 1.556-2.033 2.267 0-1.098 0.081-2.388 0.214-3.771 0.015-0.173-0.039-0.345-0.149-0.48s-0.268-0.221-0.44-0.242c-0.177-0.017-0.353 0.036-0.49 0.149s-0.224 0.274-0.242 0.451c-0.193 2.226-0.539 6.505 0.376 7.572 0.061 0.075 0.139 0.136 0.227 0.176s0.184 0.060 0.282 0.057c0.152-0.001 0.3-0.055 0.417-0.152 0.067-0.055 0.122-0.123 0.162-0.199s0.065-0.16 0.072-0.246-0.002-0.173-0.028-0.255c-0.027-0.082-0.069-0.159-0.125-0.224-0.19-0.46-0.28-0.956-0.264-1.453h0.112c0 0 1.342 0 2.104 2.033 0.048 0.122 0.133 0.227 0.241 0.301s0.237 0.114 0.369 0.115c0.084-0.002 0.166-0.019 0.244-0.051 0.163-0.064 0.294-0.189 0.365-0.349s0.074-0.341 0.011-0.505c-0.346-1.047-1.066-1.93-2.022-2.48z"></path>
<path fill="#ff5f4e" style="fill: var(--color2, #ff5f4e)" d="M92.614 5.502c-0.295-0.28-0.643-0.497-1.023-0.641s-0.786-0.209-1.192-0.193c-0.374-0-0.744-0.077-1.087-0.224-0.081-0.071-0.081-0.122-0.061-0.183s0.325-0.407 0.792-0.457c0.422-0.085 0.859-0.064 1.271 0.061 0.136 0.107 0.307 0.156 0.478 0.138s0.329-0.102 0.439-0.235 0.164-0.303 0.15-0.475c-0.013-0.172-0.094-0.331-0.223-0.445-0.183-0.173-0.783-0.549-2.267-0.366-0.414 0.022-0.812 0.163-1.148 0.404s-0.598 0.574-0.752 0.958c-0.090 0.277-0.095 0.575-0.016 0.856s0.241 0.531 0.463 0.72c0.54 0.382 1.189 0.578 1.85 0.559 0.488 0 1.138 0.112 1.311 0.325 0.013 0.022 0.019 0.046 0.019 0.071s-0.006 0.050-0.019 0.071c-0.061 0.132-0.315 0.376-0.925 0.437-0.592 0.067-1.189-0.065-1.697-0.376-0.063-0.075-0.142-0.134-0.232-0.175s-0.186-0.060-0.284-0.059c-0.098 0.002-0.194 0.025-0.282 0.069s-0.165 0.106-0.225 0.182c-0.061 0.077-0.104 0.166-0.125 0.261s-0.023 0.194-0.002 0.29 0.063 0.185 0.123 0.263c0.060 0.077 0.136 0.14 0.223 0.185 0.65 0.443 1.419 0.677 2.206 0.671h0.437c0.419-0.003 0.83-0.121 1.188-0.339s0.65-0.53 0.845-0.901c0.095-0.241 0.123-0.503 0.082-0.759s-0.15-0.496-0.316-0.695z"></path>
</symbol>

<symbol id="icon-instagram" viewBox="0 0 32 32">
<path fill="none" stroke="#fff" style="stroke: var(--color1, #fff)" stroke-linejoin="round" stroke-linecap="round" stroke-miterlimit="4" stroke-width="3.2" d="M22.4 3.2h-12.8c-3.535 0-6.4 2.865-6.4 6.4v12.8c0 3.535 2.865 6.4 6.4 6.4h12.8c3.535 0 6.4-2.865 6.4-6.4v-12.8c0-3.535-2.865-6.4-6.4-6.4z"></path>
<path fill="none" stroke="#fff" style="stroke: var(--color1, #fff)" stroke-linejoin="round" stroke-linecap="round" stroke-miterlimit="4" stroke-width="3.2" d="M21.12 15.194c0.158 1.065-0.024 2.153-0.52 3.109s-1.281 1.731-2.243 2.215c-0.962 0.484-2.052 0.653-3.115 0.482s-2.045-0.673-2.807-1.435c-0.761-0.761-1.264-1.744-1.435-2.807s-0.003-2.153 0.482-3.115 1.259-1.747 2.215-2.243c0.956-0.496 2.044-0.678 3.109-0.52 1.087 0.161 2.092 0.667 2.869 1.444s1.283 1.783 1.444 2.869z"></path>
<path fill="none" stroke="#fff" style="stroke: var(--color1, #fff)" stroke-linejoin="round" stroke-linecap="round" stroke-miterlimit="4" stroke-width="3.2" d="M23.040 8.96h0.013"></path>
</symbol>

<symbol id="icon-phone" viewBox="0 0 32 32" >
<path fill="#fff" style="fill: var(--color1, #fff)" d="M27.317 4.667c-3.010-3-7.024-4.667-11.261-4.667-8.808 0-15.944 7.111-15.944 15.889 0 2.778 0.78 5.556 2.118 7.889l-2.23 8.222 8.474-2.222c2.341 1.222 4.906 1.889 7.582 1.889 8.808 0 15.944-7.111 15.944-15.889-0.112-4.111-1.673-8.111-4.683-11.111zM23.749 21.555c-0.334 0.889-1.895 1.778-2.676 1.889-0.669 0.111-1.561 0.111-2.453-0.111-0.557-0.222-1.338-0.445-2.23-0.889-4.014-1.667-6.578-5.667-6.801-6-0.223-0.222-1.672-2.111-1.672-4.111s1.004-2.889 1.338-3.333c0.335-0.444 0.78-0.444 1.115-0.444 0.223 0 0.557 0 0.78 0s0.557-0.111 0.892 0.667c0.335 0.778 1.115 2.778 1.226 2.889 0.111 0.222 0.111 0.444 0 0.667s-0.223 0.444-0.446 0.667c-0.223 0.222-0.446 0.556-0.557 0.667-0.223 0.222-0.446 0.444-0.223 0.778 0.223 0.444 1.003 1.667 2.23 2.778 1.561 1.333 2.787 1.778 3.233 2s0.669 0.111 0.892-0.111c0.223-0.222 1.003-1.111 1.226-1.555s0.558-0.333 0.892-0.222 2.341 1.111 2.676 1.333c0.446 0.222 0.669 0.333 0.78 0.444 0.112 0.333 0.112 1.111-0.223 2z"></path>
</symbol>

<symbol id="icon-facebook" viewBox="0 0 32 32">
<path fill="none" stroke="#fff"  style="stroke: var(--color1, #fff)" stroke-linejoin="round" stroke-linecap="round" stroke-miterlimit="3" stroke-width="3" d="M19 6h5v-6h-5c-3.86 0-7 3.14-7 7v3h-4v6h4v16h6v-16h5l1-6h-6v-3c0-0.542 0.458-1 1-1z"></path>
</symbol>

</svg>