<svg width="171" height="51" viewBox="0 0 171 51" fill="none" xmlns="http://www.w3.org/2000/svg">
<g opacity="0.3">
<path fill-rule="evenodd" clip-rule="evenodd" d="M145.996 0.409668H140.223L126.929 21.1037H130.291C132.205 21.1037 132.386 20.1692 134.812 18.8278C138.701 16.7931 145.694 17.0945 145.694 17.0945C145.374 17.2546 145.112 17.5105 144.945 17.8267C144.777 18.1428 144.713 18.5033 144.76 18.858L145.167 21.1037H151L145.996 0.409668ZM136.289 14.3966C136.857 13.8512 137.362 13.2446 137.796 12.588L142.062 6.03157L143.448 12.7537C140.964 12.7118 138.507 13.2757 136.289 14.3966Z" fill="white"/>
<path d="M19.4048 1.16337C17.7004 0.359593 15.8327 -0.0376789 13.9487 0.002812C11.6136 -0.043096 9.30528 0.506749 7.24162 1.60046C5.32367 2.61668 3.73057 4.15233 2.64462 6.03166C1.53164 7.98059 0.964142 10.1933 1.00176 12.4373C0.972947 14.105 1.4059 15.7481 2.25274 17.185C3.11588 18.5807 4.36068 19.7 5.83991 20.4105C7.55033 21.2108 9.42327 21.6029 11.3111 21.556C13.6458 21.5979 15.9531 21.0483 18.0182 19.9583C19.9108 18.934 21.4775 17.3986 22.5398 15.5271C23.65 13.5771 24.2173 11.3651 24.1827 9.12145C24.2191 7.45764 23.7855 5.8173 22.9317 4.3888C22.0894 2.99795 20.8652 1.87839 19.4048 1.16337ZM17.5811 13.1005C17.0824 14.1702 16.294 15.0787 15.3052 15.723C14.285 16.3894 13.0869 16.7309 11.8688 16.7027C10.5497 16.7792 9.25424 16.3293 8.26652 15.4517C7.81973 15.0106 7.46971 14.4812 7.23876 13.8974C7.0078 13.3135 6.90099 12.6879 6.9251 12.0605C6.91229 10.8048 7.18547 9.56262 7.72393 8.42813C8.24426 7.36682 9.04746 6.46974 10.045 5.83573C11.0687 5.17704 12.2644 4.83616 13.4815 4.85604C14.1359 4.81686 14.7916 4.90866 15.4102 5.12606C16.0287 5.34345 16.5977 5.68208 17.0837 6.1221C17.5159 6.56488 17.8525 7.09163 18.0729 7.66977C18.2932 8.2479 18.3926 8.8651 18.3649 9.48318C18.391 10.7337 18.1225 11.9729 17.5811 13.1005Z" fill="white"/>
<path d="M41.8624 14.6681C43.3195 14.0296 44.5602 12.9826 45.4345 11.6537C46.29 10.3028 46.7302 8.73066 46.7006 7.13203C46.7438 6.19726 46.5688 5.26526 46.1895 4.40983C45.8102 3.55439 45.2369 2.79899 44.5151 2.20344C42.7031 0.918112 40.5085 0.28577 38.2904 0.409855H29.5184L25.3735 21.1039H31.2366L32.3067 15.6779H36.4516C38.3068 15.7335 40.1522 15.3891 41.8624 14.6681ZM34.4319 5.037H37.5217C38.3727 4.98314 39.2184 5.20513 39.9332 5.67003C40.2113 5.89298 40.4326 6.1785 40.5793 6.5033C40.726 6.8281 40.7938 7.18297 40.7773 7.53897C40.8075 8.02483 40.7285 8.51128 40.5459 8.96254C40.3633 9.41379 40.0818 9.81836 39.7222 10.1465C38.866 10.8158 37.7918 11.1434 36.7078 11.0659H33.2261L34.4319 5.037Z" fill="white"/>
<path d="M50.6344 0.424805L49.6848 5.06702H56.0453L53.3323 18.6169L53.2418 19.0238L52.8198 21.149H58.6829L59.7681 15.7682L59.8284 15.4366L61.9083 5.06702H68.2537L69.2032 0.424805H50.6344Z" fill="white"/>
<path d="M73.1673 0.424805L71.0723 10.8547L71.0421 11.0808L69.0225 21.149H74.8855L77.3423 8.85013L77.3875 8.63912L79.0304 0.424805H73.1673Z" fill="white"/>
<path d="M92.8062 12.4071L87.9379 0.424805H83.1751L79.0303 21.149H84.4261L86.6116 10.2217L90.3796 19.0992H92.9569L99.8449 10.2217L97.7197 21.149H103.146L107.155 0.801608L107.23 0.424805H102.226L92.8062 12.4071Z" fill="white"/>
<path d="M114.721 12.8292H123.96L124.819 8.44318H115.61L116.289 4.94644H126.734L127.653 0.424805H111.435L107.291 21.149H123.9L124.85 16.6123H113.983L114.721 12.8292Z" fill="white"/>
<path d="M160.872 16.4917L164.067 0.424805H158.204L154.059 21.149H169.809L170.759 16.4917H160.872Z" fill="white"/>
<path d="M3.184 33.2767C2.74133 33.2767 2.31733 33.218 1.912 33.1007C1.50667 32.9833 1.18133 32.834 0.936 32.6527L1.464 31.6527C1.72 31.8393 2.008 31.9833 2.328 32.0847C2.648 32.186 2.976 32.2367 3.312 32.2367C3.66933 32.2367 3.952 32.178 4.16 32.0607C4.368 31.9433 4.472 31.7833 4.472 31.5807C4.472 31.4153 4.38933 31.29 4.224 31.2047C4.05867 31.114 3.79467 31.018 3.432 30.9167C3.06933 30.81 2.77333 30.7087 2.544 30.6127C2.31467 30.5113 2.11467 30.362 1.944 30.1647C1.77867 29.9673 1.696 29.706 1.696 29.3807C1.696 29.002 1.8 28.6687 2.008 28.3807C2.22133 28.0927 2.52 27.8713 2.904 27.7167C3.29333 27.562 3.744 27.4847 4.256 27.4847C4.63467 27.4847 4.992 27.5273 5.328 27.6127C5.664 27.6927 5.952 27.81 6.192 27.9647L5.704 28.9567C5.496 28.8127 5.26133 28.706 5 28.6367C4.73867 28.562 4.46667 28.5247 4.184 28.5247C3.816 28.5247 3.52533 28.5887 3.312 28.7167C3.09867 28.8447 2.992 29.01 2.992 29.2127C2.992 29.3353 3.03733 29.4393 3.128 29.5247C3.21867 29.6047 3.33333 29.6713 3.472 29.7247C3.61067 29.7727 3.80533 29.8313 4.056 29.9007C4.41333 29.9967 4.70667 30.0953 4.936 30.1967C5.16533 30.2927 5.36 30.4367 5.52 30.6287C5.68533 30.8153 5.768 31.0633 5.768 31.3727C5.768 31.7567 5.66133 32.0927 5.448 32.3807C5.23467 32.6633 4.93333 32.8847 4.544 33.0447C4.15467 33.1993 3.70133 33.2767 3.184 33.2767ZM16.1176 27.5807C16.8162 27.5807 17.3549 27.7353 17.7336 28.0447C18.1176 28.3487 18.3096 28.7753 18.3096 29.3247C18.3096 29.794 18.1976 30.2047 17.9736 30.5567C17.7549 30.9033 17.4402 31.17 17.0296 31.3567C16.6242 31.5433 16.1442 31.6367 15.5896 31.6367H14.3416L14.0376 33.1807H12.7336L13.8536 27.5807H16.1176ZM15.6456 30.5807C16.0776 30.5807 16.4109 30.482 16.6456 30.2847C16.8802 30.0873 16.9976 29.8047 16.9976 29.4367C16.9976 29.17 16.9069 28.97 16.7256 28.8367C16.5496 28.7033 16.2936 28.6367 15.9576 28.6367H14.9416L14.5496 30.5807H15.6456ZM27.8969 33.2767C27.3369 33.2767 26.8516 33.1753 26.4409 32.9727C26.0303 32.77 25.7156 32.4847 25.4969 32.1167C25.2783 31.7487 25.1689 31.3247 25.1689 30.8447C25.1689 30.21 25.3129 29.6393 25.6009 29.1327C25.8943 28.6207 26.3023 28.218 26.8249 27.9247C27.3529 27.6313 27.9556 27.4847 28.6329 27.4847C29.1929 27.4847 29.6783 27.586 30.0889 27.7887C30.4996 27.9913 30.8143 28.2767 31.0329 28.6447C31.2516 29.0127 31.3609 29.4367 31.3609 29.9167C31.3609 30.5513 31.2143 31.1247 30.9209 31.6367C30.6329 32.1433 30.2249 32.5433 29.6969 32.8367C29.1743 33.13 28.5743 33.2767 27.8969 33.2767ZM28.0089 32.1727C28.4196 32.1727 28.7796 32.074 29.0889 31.8767C29.3983 31.6793 29.6356 31.4153 29.8009 31.0847C29.9663 30.754 30.0489 30.3887 30.0489 29.9887C30.0489 29.562 29.9156 29.2233 29.6489 28.9727C29.3823 28.7167 29.0063 28.5887 28.5209 28.5887C28.1103 28.5887 27.7503 28.6873 27.4409 28.8847C27.1316 29.082 26.8943 29.346 26.7289 29.6767C26.5636 30.0073 26.4809 30.3727 26.4809 30.7727C26.4809 31.1993 26.6143 31.5407 26.8809 31.7967C27.1476 32.0473 27.5236 32.1727 28.0089 32.1727ZM43.7349 29.3167C43.7349 29.8393 43.5936 30.2873 43.3109 30.6607C43.0283 31.034 42.6363 31.298 42.1349 31.4527L43.1109 33.1807H41.7429L40.8629 31.6127H39.7589L39.4469 33.1807H38.1429L39.2629 27.5807H41.5429C42.2363 27.5807 42.7749 27.7327 43.1589 28.0367C43.5429 28.3407 43.7349 28.7673 43.7349 29.3167ZM41.0629 30.5807C41.4949 30.5807 41.8283 30.482 42.0629 30.2847C42.3029 30.0873 42.4229 29.8047 42.4229 29.4367C42.4229 29.17 42.3323 28.97 42.1509 28.8367C41.9696 28.7033 41.7109 28.6367 41.3749 28.6367H40.3509L39.9589 30.5807H41.0629ZM52.4116 28.6367H50.6196L50.8356 27.5807H55.7156L55.4996 28.6367H53.7156L52.8036 33.1807H51.5076L52.4116 28.6367ZM76.6146 27.5807L75.4946 33.1807H74.4306L72.3426 29.6767L71.6386 33.1807H70.3586L71.4786 27.5807H72.5506L74.6386 31.0927L75.3346 27.5807H76.6146ZM85.8595 33.2767C85.1555 33.2767 84.6035 33.1033 84.2035 32.7567C83.8035 32.4047 83.6035 31.9247 83.6035 31.3167C83.6035 31.1407 83.6248 30.9407 83.6675 30.7167L84.2915 27.5807H85.5955L84.9715 30.6927C84.9395 30.8687 84.9235 31.026 84.9235 31.1647C84.9235 31.5007 85.0142 31.754 85.1955 31.9247C85.3822 32.09 85.6515 32.1727 86.0035 32.1727C86.3982 32.1727 86.7128 32.0553 86.9475 31.8207C87.1822 31.586 87.3528 31.21 87.4595 30.6927L88.0835 27.5807H89.3555L88.7235 30.7727C88.3822 32.442 87.4275 33.2767 85.8595 33.2767ZM97.8944 28.6367H96.1024L96.3184 27.5807H101.198L100.982 28.6367H99.1984L98.2864 33.1807H96.9904L97.8944 28.6367ZM112.768 29.3167C112.768 29.8393 112.626 30.2873 112.344 30.6607C112.061 31.034 111.669 31.298 111.168 31.4527L112.144 33.1807H110.776L109.896 31.6127H108.792L108.48 33.1807H107.176L108.296 27.5807H110.576C111.269 27.5807 111.808 27.7327 112.192 28.0367C112.576 28.3407 112.768 28.7673 112.768 29.3167ZM110.096 30.5807C110.528 30.5807 110.861 30.482 111.096 30.2847C111.336 30.0873 111.456 29.8047 111.456 29.4367C111.456 29.17 111.365 28.97 111.184 28.8367C111.002 28.7033 110.744 28.6367 110.408 28.6367H109.384L108.992 30.5807H110.096ZM120.579 27.5807H121.883L120.763 33.1807H119.459L120.579 27.5807ZM130.548 28.6367H128.756L128.972 27.5807H133.852L133.636 28.6367H131.852L130.94 33.1807H129.644L130.548 28.6367ZM140.949 27.5807H142.253L141.133 33.1807H139.829L140.949 27.5807ZM151.758 33.2767C151.198 33.2767 150.713 33.1753 150.302 32.9727C149.891 32.77 149.577 32.4847 149.358 32.1167C149.139 31.7487 149.03 31.3247 149.03 30.8447C149.03 30.21 149.174 29.6393 149.462 29.1327C149.755 28.6207 150.163 28.218 150.686 27.9247C151.214 27.6313 151.817 27.4847 152.494 27.4847C153.054 27.4847 153.539 27.586 153.95 27.7887C154.361 27.9913 154.675 28.2767 154.894 28.6447C155.113 29.0127 155.222 29.4367 155.222 29.9167C155.222 30.5513 155.075 31.1247 154.782 31.6367C154.494 32.1433 154.086 32.5433 153.558 32.8367C153.035 33.13 152.435 33.2767 151.758 33.2767ZM151.87 32.1727C152.281 32.1727 152.641 32.074 152.95 31.8767C153.259 31.6793 153.497 31.4153 153.662 31.0847C153.827 30.754 153.91 30.3887 153.91 29.9887C153.91 29.562 153.777 29.2233 153.51 28.9727C153.243 28.7167 152.867 28.5887 152.382 28.5887C151.971 28.5887 151.611 28.6873 151.302 28.8847C150.993 29.082 150.755 29.346 150.59 29.6767C150.425 30.0073 150.342 30.3727 150.342 30.7727C150.342 31.1993 150.475 31.5407 150.742 31.7967C151.009 32.0473 151.385 32.1727 151.87 32.1727ZM168.26 27.5807L167.14 33.1807H166.076L163.988 29.6767L163.284 33.1807H162.004L163.124 27.5807H164.196L166.284 31.0927L166.98 27.5807H168.26Z" fill="white"/>
</g>
</svg>
