<svg width="320" height="115" viewBox="0 0 320 115" fill="none" xmlns="http://www.w3.org/2000/svg">
<path d="M12.6451 14.5614C8.87161 15.1915 5.10293 15.8273 1.33901 16.4689C-5.63205 17.6565 -12.5917 18.8699 -19.5398 20.109C-22.9377 20.7134 -26.3669 21.5067 -29.8077 21.942C-30.823 22.0709 -31.7497 21.922 -32.7622 21.942C-34.3095 21.942 -35.9083 22.3086 -37.4127 22.5492C-50.6189 24.6168 -63.6387 27.739 -76.3475 31.886C-80.0657 33.1032 -84.2758 34.9848 -84.4273 37.9692C-84.599 41.3201 -79.5937 43.3593 -75.2435 44.2385C-73.3387 44.6223 -71.6398 45.2323 -69.6691 45.4701C-67.9406 45.6768 -66.1956 45.7075 -64.4609 45.5617C-67.0578 44.4018 -69.1057 42.5803 -70.1811 40.4752C-67.8301 41.9206 -65.4848 43.3707 -63.1452 44.8257C-63.1139 43.6172 -62.6347 42.4636 -61.801 41.5893L-59.9476 46.0658C-59.1856 45.8702 -58.4103 45.7305 -57.628 45.6476C-57.1046 45.6219 -56.6098 45.7536 -56.0893 45.7708C-54.3732 45.8367 -52.5285 45.6018 -50.8238 45.4328C-51.2514 45.5394 -51.6694 45.6812 -52.0737 45.8567L-54.6106 46.7159L-59.0209 48.2167C-61.206 48.9613 -63.3883 49.7375 -65.5992 50.4306C-66.7003 50.78 -67.7757 51.1895 -68.8225 51.6191C-70.8869 52.4608 -72.8834 53.4605 -74.7945 54.6092C-76.0815 55.3853 -77.4258 56.4622 -77.1112 57.668C-76.7966 58.8737 -75.0462 59.4666 -73.4988 59.8389C-68.0553 61.1381 -62.483 61.8193 -56.8873 61.8695C-57.3473 61.3856 -57.6968 60.8074 -57.9116 60.1749C-58.1264 59.5425 -58.2014 58.8708 -58.1314 58.2064C-56.4554 59.5869 -54.7813 60.9692 -53.1091 62.3535C-53.1434 61.8413 -53.0661 61.3278 -52.8824 60.8485C-52.6986 60.3693 -52.4129 59.9358 -52.0451 59.5783C-51.3358 60.9053 -50.6284 62.2332 -49.9229 63.5622C-49.8314 62.9894 -48.8732 62.7373 -48.1525 62.892C-47.4317 63.0466 -46.8797 63.4648 -46.2762 63.7913C-44.822 64.5476 -43.1847 64.8791 -41.5513 64.7479C-40.8415 64.6516 -40.1251 64.6124 -39.4091 64.6304C-38.4366 64.7078 -37.4471 64.6677 -36.4717 64.6677C-25.3402 64.6677 -13.2619 65.3149 -2.47353 64.1407C-8.03576 64.7495 -13.5166 65.9545 -18.822 67.735C-19.9345 68.1102 -21.3045 68.3938 -22.3828 68.832C-23.3295 69.2157 -24.0674 70.0091 -24.7967 70.5848L-27.6569 72.8531C-25.1714 74.1935 -22.48 75.7887 -19.3883 76.1439C-17.881 76.3186 -16.4767 76.8856 -15.038 77.2522C-11.7552 78.0856 -8.40544 78.628 -5.02761 78.8733C-7.03539 77.1854 -8.58652 75.0185 -9.53802 72.5724C-7.67226 74.6926 -5.53434 76.5562 -3.17998 78.1143C-2.93973 76.5868 -2.69852 75.0593 -2.45637 73.5319C-0.688812 75.1787 -1.78424 77.8279 -0.168274 79.5692C0.869949 80.6891 2.71474 81.0958 4.43366 81.1502C5.84618 81.2218 7.25095 81.4037 8.63518 81.6943C10.5829 82.0524 12.6908 82.018 14.6843 82.0752C16.9553 82.1383 19.2262 82.1688 21.4971 82.1669C26.5881 82.1669 31.6734 82.038 36.7587 81.9063C40.1279 81.8204 43.4943 81.7344 46.8635 81.6857C48.345 81.6657 49.8724 81.7545 51.351 81.6084C52.1225 81.5184 52.8785 81.3258 53.5991 81.0356C55.7099 80.2337 57.8664 80.2394 60.1173 79.8327C58.6415 78.7673 56.9283 77.8537 55.4181 76.7997C53.8622 75.7171 52.3683 74.5849 50.9363 73.403C54.3574 74.7797 57.6308 76.4992 60.7065 78.5353C60.4777 76.6135 61.1441 74.6374 62.5627 73.0306C63.0645 73.7557 63.4062 74.5795 63.565 75.4472C63.7239 76.315 63.6961 77.2066 63.4837 78.0627C64.1615 76.2154 66.0034 74.6259 68.3459 73.8927C67.7567 76.0293 67.1723 78.1658 66.5926 80.3024C66.6555 80.0647 72.6418 80.1592 73.2481 80.1621C75.5133 80.1621 77.7766 80.206 80.038 80.2938C82.2994 80.3817 84.5561 80.5172 86.8079 80.7005C88.2208 80.8151 89.0674 81.1187 90.3602 80.8008C91.284 80.5716 92.2708 80.4485 93.2203 80.2824L99.0464 79.2427C98.5687 78.6845 98.2756 77.9917 98.2074 77.2598C98.1393 76.5278 98.2995 75.7927 98.666 75.1558C99.5387 77.0752 100.806 78.7888 102.384 80.185C103.091 78.9781 104.149 78.0159 105.416 77.4269C105.324 77.8775 105.381 78.3455 105.576 78.7616C105.726 78.9937 105.944 79.1743 106.199 79.2792C106.455 79.3841 106.736 79.4084 107.006 79.3487C107.784 79.1454 107.884 78.2833 108.582 77.9482C109.357 77.5787 110.432 78.1229 110.65 78.8074C110.867 79.4919 110.51 80.1821 110.161 80.8122C111.771 80.7378 113.393 80.6976 115 80.5888C115.529 80.5545 115.958 80.3998 116.467 80.3225C117.225 80.2079 118.063 80.2394 118.836 80.2022C132.35 79.595 145.878 78.9936 159.423 79.0566C161.856 79.0699 164.289 79.1072 166.72 79.1683C168.63 79.217 170.564 79.3687 172.474 79.3544C172.834 79.355 173.194 79.3282 173.55 79.2742C174.122 79.1883 174.634 79.0279 175.206 78.9878C177.225 78.8189 179.373 78.9878 181.401 79.0165C180.621 78.2733 180.081 77.3138 179.85 76.2613C180.565 76.5649 180.797 77.2408 181.14 77.8079C181.484 78.3749 182.25 78.9535 183.011 78.7129C183.989 78.4265 183.763 77.1749 184.638 76.7281C185.35 76.3644 186.383 76.794 186.698 77.3983C187.012 78.0026 186.832 78.6871 186.646 79.3229C187.35 78.7756 188.189 78.431 189.074 78.3262C190.004 78.2375 191.033 78.5267 191.494 79.1482C191.954 79.7697 191.643 80.6919 190.77 80.9497C193.01 81.1731 195.249 81.4251 197.492 81.6256C198.939 81.7573 200.206 81.4194 201.627 81.4137C203.798 81.4137 206.046 81.7631 208.206 81.9578L214.987 82.5621C221.811 83.1693 228.635 83.7536 235.474 84.2176L236.489 84.2863C241.998 84.65 247.512 84.9278 253.038 85.0768C255.854 85.1512 258.673 85.1894 261.495 85.1913C264.215 85.1913 266.978 85.2228 269.695 85.0682C270.039 85.051 270.353 84.9737 270.688 84.9278C271.103 84.8968 271.519 84.9074 271.932 84.9593C272.911 85.0188 273.893 84.9775 274.864 84.8362C276.112 84.6595 277.328 84.3046 278.476 83.7822C275.25 79.552 273.614 74.6173 273.828 69.7485C275.605 73.3201 277.721 76.7124 280.146 79.8785C280.118 77.7448 281.099 75.614 282.88 73.9643C283.067 76.4379 282.825 78.9252 282.165 81.3163C284.213 79.0251 286.51 76.5735 289.988 75.6942C289.145 77.7009 288.306 79.7057 287.471 81.7087C287.311 82.0896 287.159 82.5135 287.385 82.8543C287.645 83.261 288.289 83.4271 288.867 83.5159C291.031 83.8837 293.236 83.9444 295.416 83.6963C296.818 83.5216 297.922 82.8371 299.343 82.6882C301.528 82.4762 303.725 82.3302 305.922 82.1153C310.109 81.7029 314.279 81.1874 318.406 80.4972C322.499 79.823 326.552 78.9311 330.55 77.825L330.79 77.7563C331.806 77.4699 332.835 77.1549 333.65 76.6107C334.466 76.0665 335.058 75.2617 334.92 74.4455C334.783 73.6292 334.022 73.0135 333.267 72.4407C328.362 68.8005 322.19 66.1398 315.534 64.7708C316.103 64.8535 316.676 64.907 317.251 64.9312L319.304 65.1202C320.786 65.2538 322.268 65.3856 323.752 65.5154C326.612 65.7636 329.466 66.0023 332.315 66.2314C337.881 66.6782 343.438 67.1909 348.995 67.6864C351.832 67.9384 354.67 68.1809 357.51 68.4138C358.811 68.5198 360.115 68.6401 361.419 68.7002C361.658 68.716 361.898 68.716 362.137 68.7002C362.867 68.6487 363.516 68.4539 364.268 68.4425L367.7 68.4024L369.416 68.3823C366.805 67.9527 364.474 66.6123 363.23 64.8252C365.503 65.9307 367.772 67.0372 370.037 68.1446C370.08 67.6205 370.14 67.0649 370.566 66.6496C370.992 66.2343 371.93 66.0768 372.374 66.4921C372.817 66.9073 372.519 67.463 372.222 67.9241C373.719 67.072 375.278 66.332 376.884 65.7102C377.499 65.4696 378.386 65.292 378.78 65.7102C379.02 65.9737 378.92 66.3317 378.78 66.6324C378.274 67.7269 377.517 68.6858 376.569 69.4306C376.712 69.3103 377.645 69.336 377.871 69.316L379.301 69.19L382.115 68.9494C382.947 68.8778 383.934 68.6773 384.766 68.7604C385.587 68.8138 386.41 68.8042 387.229 68.7317C389.231 68.6286 391.233 68.3995 393.235 68.411C394.717 68.411 396.198 68.411 397.677 68.3336C400.626 68.1996 403.566 67.8975 406.48 67.4286C412.175 66.5318 417.743 64.9638 423.069 62.7574C423.796 62.4538 424.513 62.1378 425.22 61.8094C426.544 61.1993 427.951 60.4203 428.194 59.2661C428.389 58.3382 427.76 57.4245 427.07 56.6341C424.754 53.9619 421.528 51.728 417.775 50.2072C420.635 50.3905 423.527 50.4363 426.401 50.3332C427.265 50.3472 428.129 50.2665 428.975 50.0926C429.933 49.8406 431.072 49.9781 432.076 49.9895C432.39 49.9895 432.756 49.9895 432.934 49.7976C433.194 49.5456 432.962 49.1876 432.742 48.9155C431.491 47.4058 430.849 45.482 430.943 43.5225C432.577 45.1426 433.951 47.0063 435.016 49.0472C435.631 47.6582 437.247 46.5469 439.16 46.2004C438.735 47.1551 438.31 48.1097 437.885 49.0644C437.936 48.947 439.315 48.778 439.512 48.7465L441.211 48.4143C442.286 48.2081 443.379 48.0248 444.431 47.767C446.575 47.2419 448.686 46.6548 450.767 46.0056C451.316 45.8338 451.865 45.6591 452.408 45.4815L452.68 45.3899V33.5528C452.489 33.4764 452.292 33.402 452.088 33.3294C444.715 30.6029 437.194 28.0978 429.527 25.8142C427.356 25.1669 424.928 24.7001 422.898 23.838C422.473 23.6198 422.032 23.435 421.579 23.2853C418.379 22.4261 414.572 22.1941 411.228 21.7043C404.244 20.6828 397.243 19.7215 390.226 18.8202C376.191 17.0178 362.101 15.4617 347.957 14.1519C342.457 13.6421 336.768 12.6454 331.234 13.2927C328.702 13.5934 326.452 13.3156 323.949 12.9261C316.947 11.8415 309.935 10.778 302.913 9.73552C291.958 8.11448 280.979 6.55168 269.976 5.0471C275.553 5.13493 281.126 5.24664 286.696 5.3822C282.882 5.22754 279.062 5.07861 275.235 4.93541C270.335 4.75593 265.436 4.59077 260.537 4.43993C258.098 4.36547 255.658 4.27381 253.218 4.22226C252.309 4.20508 251.502 4.3311 250.593 4.1793C250.307 4.13061 247.035 3.68096 247.04 3.86712C247.023 3.42606 247.009 2.985 246.992 2.5468C246.015 2.5372 245.048 2.73232 244.152 3.11961C244.041 2.19357 243.929 1.26849 243.814 0.344359C242.74 1.08059 241.94 2.15208 241.537 3.39169C240.21 2.58125 239.114 1.44197 238.354 0.0837402C238.333 1.44159 238.701 2.7771 239.412 3.933C238.045 3.66378 236.861 3.84707 235.494 3.90149C234.004 3.96164 232.348 3.72965 230.861 3.70101C216.772 3.42797 202.682 3.27045 188.591 3.22844C187.264 3.22844 186.017 3.17689 184.73 3.04801C183.3 2.91053 181.667 3.22271 180.251 3.33441C180.128 2.8332 180.008 2.33487 179.885 1.83366C178.855 2.04005 177.9 2.52206 177.122 3.22844C176.611 2.51857 175.867 2.01157 175.02 1.79643L176.45 3.25995L175.12 3.35446C174.218 3.41559 173.313 3.38584 172.417 3.26568C169.994 2.99359 167.269 3.26567 164.806 3.27999C161.645 3.29909 158.483 3.32487 155.322 3.35733C142.152 3.48907 128.983 3.72201 115.815 4.05615C100.445 4.43802 85.0804 4.96214 69.7216 5.6285C64.6973 6.36551 59.6768 7.11494 54.6602 7.87677C40.6189 10.0038 26.6139 12.232 12.6451 14.5614ZM56.6909 29.7866C57.1228 28.2744 58.6701 26.9025 60.7379 26.2094C60.921 26.1493 60.9324 29.6721 60.9181 29.9556C65.0081 29.4773 68.9064 28.4491 73.0508 28.1226C79.2114 27.6415 85.3979 27.3264 91.5757 27.02C103.977 26.4099 116.396 26.029 128.809 25.7942C132.904 25.7159 137.004 25.6519 141.107 25.6023C140.338 25.4705 140.372 25.6939 139.603 25.5622C139.68 24.9178 141.388 24.6084 142.772 24.4681C148.288 23.9068 153.818 23.4122 159.361 22.9845C162.139 22.7707 164.919 22.574 167.701 22.3946C168.91 22.3144 170.106 22.174 171.302 22.2714C173.391 22.4212 175.491 22.2532 177.531 21.7731C176.141 21.4866 175.392 20.2637 176.072 19.3988C177.173 20.7748 178.534 21.9202 180.076 22.7697C180.744 21.5497 181.403 20.3286 182.056 19.1066C182.593 20.1625 183.129 21.2203 183.663 22.28C183.821 21.6419 184.132 21.052 184.57 20.5616C184.875 20.27 185.238 20.0459 185.635 19.9038C186.032 19.7617 186.454 19.7048 186.875 19.7367C187.787 19.8141 188.545 20.5014 188.171 21.0628C191.282 21.0628 194.397 21.2031 197.486 21.143C215.319 20.7936 234.462 20.6647 251.991 22.744C254.851 23.0819 257.663 23.5087 260.38 24.0586C261.524 24.2905 262.954 24.5082 263.926 24.9178C265.225 25.4476 264.83 26.1264 264.301 26.7593C262.871 28.452 259.828 29.8038 255.887 30.1962C257.483 30.0387 259.465 30.1561 261.109 30.1532C263.207 30.1532 265.304 30.158 267.402 30.1675C277.546 30.2506 287.751 30.1188 298.068 30.7403C312.051 31.5852 326.031 32.5332 339.943 33.9223C342.551 34.1829 345.577 34.0483 347.665 35.1968C348.343 35.5662 349.79 35.9471 350.239 35.1968C350.477 34.7987 350.082 34.3633 349.756 33.9853C348.589 32.6335 348.168 31.0067 348.612 29.5002C349.578 31.0067 350.541 32.5141 351.5 34.0225C351.901 32.9113 353.031 31.9404 354.538 31.4163C354.468 32.6513 354.054 33.842 353.342 34.8531C353.98 34.2201 355.45 34.0139 356.366 34.5037C357.281 34.9934 357.224 36.1104 356.22 36.4512C356.955 36.2049 358.545 36.3939 359.349 36.4512C360.441 36.5314 361.462 36.7634 362.538 36.9037C363.195 36.9868 363.833 36.941 364.494 36.9753C365.62 37.0739 366.739 37.2306 367.849 37.445C375.548 38.6508 383.314 40.206 389.514 42.8351C391.047 43.4853 392.569 44.2958 392.686 45.2037C392.763 45.7908 392.226 46.3264 391.496 46.756C389.85 47.673 387.992 48.1411 386.108 48.1136C385.476 48.1136 379.733 48.8296 379.63 48.4C379.452 47.6324 379.272 46.8677 379.095 46.1087C377.931 46.4295 377.061 47.1742 376.858 48.0191C376.2 46.9727 375.541 45.9226 374.879 44.8686C373.975 45.808 375.565 47.2028 374.785 48.1938C373.947 49.2506 371.873 48.7064 370.494 48.7666C366.078 48.9355 361.534 48.7121 357.103 48.5632C353.237 48.4315 349.374 48.251 345.517 48.0219C356.24 48.8002 366.916 50.1251 377.505 51.9915C380.17 52.464 383.205 53.1571 384.057 54.4345C384.909 55.7118 383.316 56.5596 381.795 57.0121C376.784 58.5329 370.44 58.5214 365.032 58.679C356.972 58.911 348.889 58.8422 340.826 58.7277C336.883 58.6742 332.938 58.6045 328.991 58.5186C327.187 58.4813 325.319 58.5386 323.557 58.2637C322.905 58.1549 315.5 57.7338 315.492 57.7539L317.78 53.7614C317.931 53.4979 318.066 53.1485 317.742 52.9566C317.488 52.8417 317.205 52.8077 316.93 52.8593C314.642 53.0855 312.609 54.1824 311.759 55.646C312.034 54.596 311.978 53.4867 311.599 52.4697C309.989 53.243 309.159 54.7008 309.56 56.0355C307.866 54.6397 306.168 53.2488 304.463 51.8626C305.172 53.9275 307.066 55.8063 309.637 57.0006C302.384 58.1921 294.99 57.9458 287.568 57.8398C266.074 57.5305 244.337 56.846 223.347 53.2087C221.631 52.9223 219.746 52.5184 219.017 51.728C218.445 51.1007 219.303 50.2501 220.538 50.0955C220.067 50.0955 219.603 50.0955 219.549 50.0955L216.443 50.0668C215.871 50.0668 215.376 50.0325 214.838 50.0096C214.16 49.9866 213.528 49.9895 212.836 50.0096C205.4 50.253 197.946 50.4077 190.496 50.5824C177.911 50.8917 165.441 50.8688 152.948 51.0435C150.245 51.0807 147.548 51.2182 144.883 50.9804C143.533 50.8602 142.023 51.1638 140.678 51.3012L136.156 51.7681C137.061 50.939 137.81 49.9545 138.367 48.8611C138.582 48.4286 138.61 47.7985 137.964 47.6868C137.659 47.6602 137.353 47.7156 137.077 47.8472C135.181 48.5709 133.43 49.6314 131.909 50.9776C131.388 49.2026 131.48 47.3031 132.172 45.5875C130.491 46.8333 129.658 48.5833 129.939 50.2501C128.222 48.0544 126.499 45.8586 124.767 43.6628C125.413 46.6748 126.661 49.5245 128.437 52.0401C126.149 52.1089 123.861 52.0401 121.573 52.1461C113.767 52.5127 105.939 52.7648 98.1197 52.8049C92.6855 52.8335 87.2513 52.759 81.817 52.5442C79.0999 52.4392 76.3857 52.296 73.6743 52.1146C72.7251 52.1016 71.7894 51.8879 70.9285 51.4874C70.6854 51.3814 67.831 50.9346 67.9454 51.3671C67.6156 50.1356 67.2857 48.905 66.9558 47.6754C65.766 48.0878 64.8851 48.8954 64.6477 49.7862C63.0441 48.9842 61.4358 48.1852 59.8227 47.389C59.468 48.7035 60.1259 50.1127 61.513 51.0263C60.006 51.0651 58.4984 50.9692 57.0084 50.7399C55.6384 50.5251 54.5258 50.064 53.1558 49.8406C50.0096 49.3308 46.3344 48.1852 47.4899 46.6071C48.0018 45.9083 49.3604 45.4013 50.6732 44.9689C56.8256 42.9859 63.1625 41.631 69.5872 40.9248C63.7068 41.5979 57.8349 42.311 51.9317 42.8666C48.9543 43.1531 45.9254 43.4395 42.9423 43.554C41.7382 43.597 40.5541 43.3192 39.3157 43.322C37.9398 43.3258 36.567 43.4542 35.2143 43.7058C35.8749 42.4493 36.0983 41.0082 35.8492 39.6102C33.707 40.163 32.0338 41.5091 31.5991 43.0213C31.3493 41.7783 31.1024 40.5372 30.8583 39.2981C30.5163 39.6777 30.2716 40.135 30.1456 40.6305C30.0195 41.126 30.0158 41.6448 30.1347 42.142C27.7265 41.0079 25.3974 39.8002 23.1474 38.5191C23.9139 40.5955 25.6615 42.48 28.0697 43.8376C25.5671 44.2328 23.5793 44.0438 21.1139 43.7516C19.1718 43.5197 17.1698 43.7144 15.2106 43.5569C13.177 43.3965 11.1578 43.2189 9.14999 42.9182C6.51547 42.5252 3.90634 41.9773 1.33615 41.2771C-0.036705 40.8991 -1.63264 40.2117 -1.54684 39.1062C-1.46104 38.0007 0.137772 37.468 1.49346 37.1443C17.7943 33.2572 34.4521 31.0642 51.2023 30.6C50.8857 30.0785 50.529 29.5825 50.1355 29.1164C49.7579 28.7298 49.6436 28.2085 49.4748 27.7446C49.0849 26.659 48.777 25.5455 48.5538 24.4137C48.5538 24.345 48.5281 24.2791 48.5167 24.2103C50.2689 26.0953 52.2107 27.7941 54.3113 29.2797C54.2247 28.5599 54.2839 27.8301 54.4854 27.1338C54.6868 26.4375 55.0265 25.789 55.4839 25.2271L56.6909 29.7866Z" fill="#FFF6EF"/>
<path d="M54.3112 29.2654C52.2106 27.7798 50.2688 26.081 48.5166 24.196C48.5166 24.2648 48.5423 24.3306 48.5538 24.3994C48.7767 25.5331 49.0845 26.6485 49.4747 27.736C49.6435 28.1999 49.7607 28.7212 50.1354 29.1078C50.5289 29.5739 50.8856 30.0699 51.2022 30.5914C34.4516 31.0594 17.7938 33.2562 1.49337 37.1472C0.13767 37.4708 -1.464 38.0407 -1.54694 39.109C-1.62988 40.1773 -0.0368023 40.9019 1.33605 41.28C3.90636 41.9782 6.51549 42.5242 9.1499 42.9153C11.152 43.2161 13.1769 43.3936 15.2105 43.554C17.1697 43.7115 19.1718 43.5168 21.1138 43.7488C23.5792 44.0352 25.567 44.2299 28.0696 43.8347C25.6614 42.4771 23.9138 40.5926 23.1473 38.5162C25.3935 39.7974 27.7226 41.005 30.1346 42.1392C30.0157 41.6419 30.0194 41.1231 30.1455 40.6277C30.2716 40.1322 30.5162 39.6748 30.8582 39.2952C31.1042 40.5382 31.3511 41.7793 31.599 43.0184C32.0337 41.5062 33.7069 40.1544 35.8491 39.6074C36.0982 41.0053 35.8748 42.4465 35.2142 43.7029C36.5669 43.4513 37.9397 43.3229 39.3156 43.3192C40.554 43.3192 41.7381 43.6056 42.9422 43.5511C45.9367 43.4452 48.9485 43.1416 51.9316 42.8638C57.8348 42.3082 63.7067 41.595 69.5871 40.922C63.1572 41.6309 56.8154 42.9896 50.6588 44.9774C49.346 45.4099 47.9874 45.9168 47.4755 46.6157C46.3314 48.1937 49.9838 49.3394 53.1414 49.8492C54.5114 50.0725 55.624 50.5336 56.994 50.7484C58.484 50.9778 59.9916 51.0737 61.4986 51.0349C60.1115 50.1212 59.4537 48.7121 59.8083 47.3975C61.4214 48.1937 63.0298 48.9928 64.6333 49.7947C64.8707 48.904 65.7516 48.0964 66.9415 47.6839C67.2732 48.9155 67.6031 50.146 67.9311 51.3757C67.8167 50.9432 70.6711 51.39 70.9142 51.496C71.775 51.8965 72.7107 52.1102 73.6599 52.1232C76.3694 52.3046 79.0836 52.4478 81.8026 52.5528C87.2369 52.7676 92.6711 52.8392 98.1053 52.8134C105.913 52.7733 113.742 52.527 121.558 52.1547C123.846 52.0459 126.134 52.1175 128.423 52.0487C126.647 49.5331 125.399 46.6834 124.753 43.6714C126.486 45.8615 128.21 48.0572 129.924 50.2587C129.638 48.5918 130.476 46.8419 132.158 45.5961C131.466 47.3117 131.373 49.2111 131.895 50.9862C133.415 49.6399 135.166 48.5795 137.063 47.8558C137.339 47.7242 137.645 47.6688 137.95 47.6954C138.596 47.8071 138.567 48.4372 138.353 48.8696C137.795 49.9631 137.046 50.9476 136.142 51.7766L140.664 51.3098C142.002 51.1723 143.524 50.8687 144.868 50.989C147.534 51.2267 150.231 51.0893 152.934 51.052C165.427 50.8859 177.903 50.9002 190.481 50.5909C197.918 50.4076 205.383 50.253 212.822 50.0181C213.514 49.9952 214.146 49.9923 214.824 50.0181C215.362 50.041 215.865 50.0725 216.428 50.0754L219.535 50.104C219.589 50.104 220.052 50.104 220.524 50.104C220.823 50.0685 221.125 50.0743 221.422 50.1212C221.459 50.1232 221.495 50.129 221.531 50.1384L221.422 50.1212C221.239 50.104 220.882 50.1012 220.524 50.104C219.291 50.2587 218.422 51.1093 219.003 51.7365C219.732 52.527 221.611 52.9194 223.333 53.2172C244.323 56.8546 266.06 57.5391 287.554 57.8484C294.99 57.9544 302.369 58.2007 309.622 57.0092C307.048 55.8149 305.158 53.9361 304.449 51.8712C306.153 53.2593 307.852 54.6502 309.545 56.0441C309.145 54.7094 309.974 53.2516 311.585 52.4783C311.963 53.4953 312.019 54.6046 311.745 55.6545C312.603 54.191 314.628 53.0941 316.916 52.8678C317.19 52.8163 317.474 52.8503 317.728 52.9652C318.043 53.1571 317.917 53.5065 317.765 53.77L315.477 57.7625C315.477 57.7424 322.891 58.1634 323.543 58.2723C325.307 58.5587 327.175 58.4899 328.977 58.5272C332.92 58.6112 336.865 58.6809 340.812 58.7362C348.875 58.8508 356.957 58.9195 365.017 58.6875C370.426 58.53 376.77 58.5415 381.78 57.0207C383.302 56.5567 384.898 55.7118 384.043 54.4431C383.188 53.1743 380.156 52.4726 377.49 52C366.902 50.1337 356.226 48.8088 345.503 48.0305C343.611 47.9178 341.722 47.7956 339.834 47.6639C341.724 47.767 343.615 47.893 345.503 48.0305C349.362 48.2558 353.224 48.4362 357.089 48.5718C361.519 48.7207 366.064 48.9441 370.48 48.7751C371.862 48.7207 373.935 49.2649 374.77 48.2023C375.551 47.2114 373.961 45.8166 374.865 44.8772C375.528 45.9216 376.188 46.9717 376.844 48.0276C377.047 47.1684 377.916 46.4381 379.08 46.1173C379.258 46.882 379.438 47.6467 379.615 48.4085C379.718 48.8467 385.461 48.1221 386.093 48.1221C387.977 48.1497 389.835 47.6816 391.482 46.7646C392.211 46.335 392.749 45.7994 392.672 45.2123C392.554 44.3044 391.033 43.4939 389.5 42.8437C383.299 40.2146 375.534 38.6594 367.835 37.4536C366.725 37.2392 365.605 37.0824 364.48 36.9839C363.819 36.9496 363.181 36.9839 362.523 36.9123C361.448 36.772 360.427 36.54 359.334 36.4598C358.531 36.4025 356.94 36.2135 356.205 36.4598C357.221 36.119 357.266 34.9992 356.351 34.5123C355.436 34.0254 353.966 34.2259 353.328 34.8617C354.04 33.8506 354.454 32.6599 354.523 31.4248C353.016 31.949 351.886 32.9199 351.486 34.0311C350.533 32.5246 349.57 31.0172 348.597 29.5088C348.157 31.0153 348.577 32.6421 349.741 33.9939C350.067 34.3719 350.462 34.8073 350.225 35.2054C349.776 35.9557 348.328 35.5748 347.651 35.2054C345.554 34.0597 342.528 34.1915 339.928 33.9309C326.017 32.5418 312.036 31.5938 298.053 30.7489C287.737 30.1246 277.532 30.2563 267.387 30.1761C265.29 30.1589 263.192 30.1542 261.095 30.1618C259.45 30.1618 257.468 30.0472 255.872 30.2048C259.814 29.8181 262.865 28.4663 264.287 26.7679C264.816 26.135 265.211 25.4562 263.912 24.9264C262.937 24.5283 261.515 24.3106 260.366 24.0671C257.648 23.5173 254.831 23.0905 251.977 22.7526C234.447 20.6733 215.304 20.8022 197.472 21.1516C194.383 21.2117 191.268 21.0742 188.156 21.0714C188.531 20.4986 187.773 19.8227 186.861 19.7453C186.44 19.7134 186.017 19.7703 185.62 19.9124C185.223 20.0545 184.86 20.2786 184.555 20.5702C184.118 21.0606 183.807 21.6505 183.649 22.2886C183.115 21.2308 182.579 20.173 182.041 19.1152C181.389 20.3372 180.729 21.5583 180.062 22.7783C178.519 21.9288 177.159 20.7834 176.058 19.4074C175.377 20.2666 176.126 21.4867 177.516 21.7816C175.477 22.2617 173.377 22.4298 171.287 22.28C170.092 22.1826 168.896 22.323 167.686 22.4031C164.902 22.5807 162.122 22.7774 159.346 22.9931C153.801 23.4189 148.272 23.9134 142.757 24.4767C141.373 24.617 139.666 24.9264 139.588 25.5708C140.358 25.7025 140.324 25.4791 141.093 25.6109C136.997 25.6624 132.898 25.7264 128.794 25.8027C116.381 26.0376 103.963 26.4185 91.5614 27.0286C85.3835 27.335 79.1971 27.65 73.0364 28.1312C68.8921 28.4577 64.9937 29.4859 60.9037 29.9642C60.9037 29.6778 60.9037 26.1579 60.7236 26.218C58.6557 26.9111 57.1084 28.283 56.6765 29.7952L55.4667 25.2128C55.0122 25.776 54.6757 26.4251 54.4772 27.1213C54.2787 27.8176 54.2222 28.5468 54.3112 29.2654Z" fill="white"/>
<path d="M450.818 46.0913C448.736 46.7386 446.624 47.3257 444.483 47.8527C443.43 48.1105 442.338 48.2938 441.262 48.5L439.563 48.8322C439.363 48.8695 437.987 49.0327 437.936 49.1501C438.359 48.1955 438.784 47.2408 439.212 46.2861C437.298 46.6326 435.682 47.7439 435.067 49.133C434.002 47.092 432.628 45.2284 430.994 43.6082C430.901 45.5678 431.542 47.4915 432.793 49.0012C433.014 49.2733 433.245 49.6313 432.985 49.8833C432.793 50.0666 432.413 50.0781 432.127 50.0752C431.123 50.0752 429.985 49.9263 429.027 50.1783C428.18 50.3522 427.317 50.4329 426.453 50.4189C423.578 50.522 420.695 50.4762 417.826 50.2929C421.579 51.8137 424.805 54.0476 427.122 56.7198C427.811 57.5102 428.44 58.4382 428.246 59.3518C428.003 60.4974 426.596 61.285 425.271 61.8951C424.564 62.2235 423.847 62.5395 423.12 62.8431C417.794 65.0495 412.226 66.6175 406.532 67.5143C403.617 67.9832 400.678 68.2853 397.728 68.4193C396.25 68.4881 394.768 68.5024 393.287 68.4967C391.285 68.4967 389.282 68.7143 387.28 68.8174C386.461 68.8899 385.638 68.8995 384.818 68.8461C383.986 68.763 382.999 68.9635 382.166 69.0351L379.352 69.2757L377.922 69.4017C377.696 69.4217 376.764 69.4017 376.621 69.5163C377.568 68.7715 378.326 67.8126 378.832 66.7181C378.966 66.4174 379.066 66.0594 378.832 65.7959C378.437 65.3663 377.55 65.5439 376.935 65.7959C375.329 66.4177 373.771 67.1577 372.273 68.0098C372.559 67.5573 372.845 66.9759 372.425 66.5778C372.004 66.1797 371.046 66.3229 370.617 66.7353C370.188 67.1477 370.131 67.7062 370.088 68.2303C367.823 67.1229 365.554 66.0164 363.281 64.9109C364.525 66.6981 366.856 68.0384 369.468 68.468L367.751 68.4881L364.319 68.5282C363.567 68.5282 362.918 68.7344 362.189 68.7859C361.95 68.8017 361.71 68.8017 361.471 68.7859C360.166 68.7115 358.862 68.5912 357.561 68.4995C354.722 68.2704 351.884 68.0279 349.046 67.7721C343.489 67.2766 337.932 66.7639 332.366 66.3171C329.506 66.088 326.652 65.8494 323.803 65.6011C322.321 65.4713 320.839 65.3396 319.355 65.2059L317.302 65.0169C316.727 64.9927 316.155 64.9392 315.586 64.8565C322.241 66.214 328.413 68.8862 333.319 72.5264C334.074 73.0992 334.84 73.7321 334.972 74.5312C335.103 75.3303 334.523 76.158 333.702 76.6964C332.881 77.2348 331.851 77.5556 330.842 77.842L330.601 77.9107C326.604 79.0168 322.55 79.9088 318.457 80.5829C314.33 81.2731 310.163 81.7886 305.973 82.2011C303.788 82.413 301.591 82.5591 299.395 82.7739C297.965 82.9113 296.869 83.6073 295.468 83.782C293.287 84.0302 291.082 83.9694 288.918 83.6016C288.346 83.5042 287.697 83.3467 287.437 82.94C287.211 82.5848 287.362 82.161 287.522 81.7944C288.357 79.7876 289.196 77.7828 290.039 75.7799C286.561 76.6592 284.265 79.1022 282.217 81.402C282.876 79.0109 283.118 76.5236 282.932 74.05C281.15 75.6997 280.169 77.8305 280.198 79.9642C277.772 76.7981 275.656 73.4058 273.88 69.8342C273.656 74.7202 275.31 79.6463 278.527 83.8679C277.38 84.3903 276.163 84.7452 274.915 84.9219C273.944 85.0632 272.962 85.1045 271.983 85.045C271.571 84.9931 271.154 84.9825 270.739 85.0135C270.405 85.0594 270.09 85.1367 269.747 85.1539C267.03 85.3085 264.267 85.277 261.547 85.277C258.727 85.277 255.907 85.2388 253.089 85.1625C247.564 85.0135 242.049 84.7357 236.541 84.372L235.525 84.3033C228.687 83.8393 221.863 83.255 215.038 82.6479L208.257 82.0435C206.1 81.8488 203.852 81.4936 201.679 81.4994C200.249 81.4994 198.99 81.8431 197.543 81.7113C195.301 81.5108 193.061 81.2588 190.822 81.0354C191.68 80.7776 192.006 79.8554 191.545 79.2339C191.085 78.6124 190.055 78.3232 189.126 78.4119C188.241 78.5167 187.401 78.8613 186.697 79.4086C186.883 78.7728 187.064 78.0912 186.749 77.484C186.434 76.8768 185.402 76.4501 184.69 76.8138C183.814 77.2606 184.04 78.4979 183.062 78.7986C182.301 79.0277 181.532 78.4578 181.192 77.8936C180.851 77.3293 180.62 76.6506 179.902 76.347C180.133 77.3995 180.673 78.359 181.452 79.1022C179.424 79.0793 177.276 78.9046 175.257 79.0735C174.685 79.1194 174.162 79.2798 173.601 79.3599C173.245 79.4139 172.886 79.4407 172.526 79.4401C170.615 79.4545 168.682 79.3027 166.771 79.254C164.34 79.191 161.908 79.1537 159.475 79.1423C145.929 79.0649 132.401 79.6664 118.887 80.2879C118.115 80.3251 117.277 80.2879 116.519 80.4082C116.01 80.4855 115.581 80.6402 115.051 80.6745C113.444 80.7834 111.822 80.8235 110.212 80.8979C110.561 80.2564 110.919 79.5576 110.701 78.8931C110.484 78.2286 109.408 77.6702 108.633 78.0339C107.935 78.369 107.835 79.2311 107.057 79.4344C106.788 79.4941 106.506 79.4698 106.251 79.3649C105.995 79.26 105.778 79.0794 105.627 78.8473C105.432 78.4313 105.376 77.9632 105.467 77.5126C104.2 78.1016 103.142 79.0638 102.435 80.2707C100.857 78.8745 99.59 77.1609 98.7173 75.2415C98.3631 75.8639 98.2049 76.579 98.2636 77.2929C98.3223 78.0069 98.5951 78.6865 99.0462 79.2425L93.2002 80.2707C92.2535 80.4368 91.2667 80.5571 90.34 80.7891C89.0473 81.107 88.2007 80.7891 86.7878 80.6889C84.5378 80.4979 82.2812 80.3624 80.0179 80.2822C77.7546 80.202 75.4903 80.1571 73.2251 80.1476C72.6187 80.1476 66.6325 80.0502 66.5696 80.2879C67.1416 78.1513 67.726 76.0147 68.3229 73.8782C65.9833 74.6171 64.1414 76.2009 63.4607 78.0482C63.6731 77.1921 63.7008 76.3004 63.542 75.4327C63.3832 74.565 63.0415 73.7412 62.5397 73.0161C61.1096 74.6228 60.4547 76.599 60.6835 78.5208C57.6078 76.4847 54.3344 74.7652 50.9133 73.3884C52.3434 74.5684 53.8373 75.7007 55.3951 76.7852C56.9053 77.8391 58.6185 78.7528 60.0943 79.8182C57.8434 80.2249 55.6869 80.2192 53.5761 81.0211C52.8555 81.3113 52.0995 81.5039 51.328 81.5939C49.8493 81.74 48.322 81.6512 46.8405 81.6712C43.4713 81.7199 40.1049 81.8058 36.7357 81.8918C31.6504 82.0235 26.5651 82.1524 21.477 82.1524C19.2022 82.1524 16.9303 82.1218 14.6613 82.0607C12.6592 82.0034 10.5599 82.0378 8.61217 81.6798C7.22794 81.3892 5.82317 81.2073 4.41065 81.1357C2.69458 81.0812 0.846939 80.6745 -0.191284 79.5547C-1.80439 77.8363 -0.708965 75.1641 -2.47938 73.5173C-2.72344 75.0448 -2.96464 76.5723 -3.20298 78.0998C-5.55734 76.5416 -7.69529 74.6781 -9.56104 72.5579C-8.60955 75.004 -7.05841 77.1708 -5.05063 78.8587C-8.42846 78.6135 -11.7782 78.071 -15.061 77.2377C-16.4911 76.8711 -17.904 76.304 -19.4113 76.1293C-22.5031 75.7742 -25.1944 74.1789 -27.6799 72.8385L-24.8198 70.5702C-24.0904 69.9974 -23.3525 69.2012 -22.4058 68.8174C-21.3276 68.3792 -19.9576 68.0957 -18.845 67.7205C-13.5397 65.94 -8.05877 64.735 -2.49654 64.1262C-13.2849 65.3004 -25.3632 64.6417 -36.4948 64.6531C-37.4701 64.6531 -38.4597 64.6932 -39.4321 64.6159C-40.1482 64.5978 -40.8645 64.6371 -41.5743 64.7333C-43.2077 64.8646 -44.8451 64.5331 -46.2992 63.7768C-46.9027 63.4445 -47.4433 63.0292 -48.1755 62.8774C-48.9077 62.7256 -49.8544 62.9891 -49.9459 63.5476C-50.6514 62.2111 -51.3588 60.8831 -52.0681 59.5638C-52.4359 59.9213 -52.7216 60.3548 -52.9054 60.834C-53.0891 61.3133 -53.1665 61.8268 -53.1321 62.339C-54.8024 60.9547 -56.4765 59.5724 -58.1544 58.1919C-58.2244 58.8563 -58.1494 59.5279 -57.9346 60.1604C-57.7198 60.7929 -57.3703 61.3711 -56.9103 61.855C-62.506 61.8048 -68.0784 61.1236 -73.5219 59.8244C-75.0692 59.4521 -76.8196 58.8449 -77.1342 57.6535C-77.4488 56.462 -76.1045 55.3622 -74.8175 54.5947C-72.9065 53.4459 -70.9099 52.4463 -68.8456 51.6046C-67.7988 51.175 -66.7234 50.7654 -65.6222 50.416C-63.4199 49.7229 -61.2376 48.9468 -59.0439 48.2021L-54.6336 46.7014L-52.0967 45.8422C-51.6924 45.6667 -51.2744 45.5249 -50.8468 45.4183C-52.5629 45.5873 -54.3905 45.8221 -56.1123 45.7563C-56.6329 45.7391 -57.1277 45.6073 -57.6511 45.6331C-58.426 45.7217 -59.1936 45.8663 -59.9477 46.0656L-61.7925 41.5891C-62.6263 42.4634 -63.1054 43.617 -63.1368 44.8255C-65.4763 43.3705 -67.8216 41.9204 -70.1727 40.475C-69.1058 42.5801 -67.058 44.4016 -64.4524 45.5615C-66.1871 45.7073 -67.9322 45.6766 -69.6607 45.4699C-71.6313 45.2321 -73.3302 44.6106 -75.2351 44.2383C-79.5853 43.3591 -84.5905 41.3199 -84.4189 37.969C-84.2673 34.9846 -80.0572 33.1001 -76.3391 31.8857C-63.6325 27.7342 -50.6146 24.6073 -37.41 22.5347C-35.8999 22.2941 -34.3068 21.9361 -32.7594 21.9275C-31.747 21.9275 -30.8203 22.0707 -29.8049 21.9275C-26.3728 21.4922 -22.9406 20.6988 -19.5371 20.0945C-12.587 18.8573 -5.6274 17.6439 1.34175 16.4543C5.10757 15.8109 8.87625 15.1751 12.6478 14.5469C26.6128 12.2213 40.6216 9.99022 54.6744 7.85366C59.691 7.08991 64.7115 6.3405 69.7358 5.6054L70.4994 5.49083C14.6888 2.74271 -41.2558 5.87889 -96.4114 14.8476V109.361C-96.03 111.239 -95.6401 113.119 -95.2416 115C87.234 104.538 270.159 103.495 452.731 114.192V45.4756L452.46 45.5672C451.916 45.7448 451.367 45.9195 450.818 46.0913Z" fill="#FFEBDA"/>
<path d="M286.747 5.39662C281.18 5.26105 275.606 5.14935 270.027 5.06152C281.029 6.56609 292.008 8.12891 302.964 9.74995C309.987 10.7886 316.999 11.8521 324 12.9405C326.5 13.33 328.754 13.6078 331.285 13.3071C336.819 12.6483 342.508 13.645 348.008 14.1663C362.149 15.4742 376.239 17.0303 390.278 18.8347C397.295 19.734 404.295 20.6953 411.28 21.7187C414.623 22.2085 418.43 22.4347 421.631 23.2997C422.084 23.4494 422.525 23.6342 422.949 23.8524C424.98 24.7117 427.408 25.1813 429.579 25.8286C437.238 28.1084 444.758 30.6135 452.139 33.3438C452.33 33.4164 452.527 33.4909 452.731 33.5672V16.6809C397.674 10.3743 342.362 6.73412 286.747 5.39662Z" fill="#FFF0E3"/>
</svg>
