<svg xmlns="http://www.w3.org/2000/svg" style="display: none;">

<symbol id="icon-instagram" viewBox="0 0 32 32">
<path fill="none" stroke="#fff" style="stroke: var(--color1, #fff)" stroke-linejoin="round" stroke-linecap="round" stroke-miterlimit="4" stroke-width="3.2" d="M22.4 3.2h-12.8c-3.535 0-6.4 2.865-6.4 6.4v12.8c0 3.535 2.865 6.4 6.4 6.4h12.8c3.535 0 6.4-2.865 6.4-6.4v-12.8c0-3.535-2.865-6.4-6.4-6.4z"></path>
<path fill="none" stroke="#fff" style="stroke: var(--color1, #fff)" stroke-linejoin="round" stroke-linecap="round" stroke-miterlimit="4" stroke-width="3.2" d="M21.12 15.194c0.158 1.065-0.024 2.153-0.52 3.109s-1.281 1.731-2.243 2.215c-0.962 0.484-2.052 0.653-3.115 0.482s-2.045-0.673-2.807-1.435c-0.761-0.761-1.264-1.744-1.435-2.807s-0.003-2.153 0.482-3.115 1.259-1.747 2.215-2.243c0.956-0.496 2.044-0.678 3.109-0.52 1.087 0.161 2.092 0.667 2.869 1.444s1.283 1.783 1.444 2.869z"></path>
<path fill="none" stroke="#fff" style="stroke: var(--color1, #fff)" stroke-linejoin="round" stroke-linecap="round" stroke-miterlimit="4" stroke-width="3.2" d="M23.040 8.96h0.013"></path>
</symbol>

<symbol id="icon-logo" viewBox="0 0 99 32">
<path fill="#d07cc6" style="fill: var(--color2, #d07cc6)" d="M40.645 21.434c-0.844-1.005-1.065-5.164-0.844-7.495 0.017-0.176-0.002-0.354-0.054-0.523s-0.137-0.326-0.25-0.463-0.252-0.249-0.408-0.332c-0.157-0.083-0.328-0.133-0.504-0.15h-0.161c-0.336 0.001-0.661 0.127-0.909 0.353s-0.405 0.537-0.437 0.872c0 0.070-0.613 7.033 1.477 9.495 0.125 0.145 0.279 0.262 0.452 0.344s0.362 0.125 0.553 0.129c0.321 0.002 0.631-0.112 0.874-0.322 0.271-0.231 0.441-0.559 0.472-0.914 0.026-0.175 0.016-0.353-0.029-0.524s-0.124-0.331-0.233-0.471z"></path>
<path fill="#d07cc6" style="fill: var(--color2, #d07cc6)" d="M38.224 11.527c0.191 0.055 0.392 0.069 0.589 0.041s0.386-0.098 0.554-0.204c0.168-0.106 0.312-0.247 0.421-0.413s0.183-0.353 0.215-0.549c0.052-0.199 0.063-0.406 0.031-0.609s-0.104-0.398-0.213-0.572c-0.109-0.174-0.253-0.324-0.422-0.441s-0.36-0.197-0.562-0.237c-0.191-0.053-0.39-0.066-0.586-0.036s-0.383 0.1-0.549 0.208c-0.166 0.107-0.308 0.249-0.415 0.415s-0.178 0.353-0.208 0.549c-0.053 0.197-0.066 0.403-0.037 0.604s0.1 0.396 0.207 0.569c0.107 0.173 0.249 0.323 0.417 0.439s0.357 0.197 0.557 0.236z"></path>
<path fill="#d07cc6" style="fill: var(--color2, #d07cc6)" d="M69.903 9.91c-0.094-0.932-0.371-1.837-0.814-2.663-0.459-0.862-1.121-1.6-1.929-2.15-0.808-0.586-1.752-0.956-2.743-1.075-0.982-0.092-1.972 0.056-2.884 0.432-1.551 0.687-2.925 1.718-4.019 3.014-0.63 0.705-1.204 1.457-1.718 2.251l-0.291-0.422c-0.492-0.594-1.029-1.148-1.608-1.658-1.221-1.15-2.699-1.994-4.31-2.462-1.005-0.295-2.077-0.275-3.070 0.057s-1.861 0.961-2.486 1.802c-1.048 1.464-1.604 3.223-1.587 5.024 0.032 3.237 1.041 6.389 2.894 9.043 1.689 2.542 3.889 4.705 6.46 6.35 0.279 0.169 0.612 0.228 0.933 0.164s0.605-0.246 0.798-0.509c0.193-0.264 0.28-0.59 0.244-0.915s-0.192-0.624-0.438-0.84c-2.076-1.668-3.848-3.684-5.235-5.958-1.341-2.15-2.080-4.621-2.14-7.154-0.032-1.072 0.274-2.126 0.874-3.014 0.209-0.325 0.518-0.574 0.88-0.709s0.758-0.151 1.129-0.044c1.148 0.314 2.223 0.85 3.165 1.577 1.056 0.748 2.033 1.603 2.914 2.552 0.093 0.142 0.213 0.265 0.352 0.362 0.126 0.083 0.267 0.14 0.415 0.168s0.3 0.027 0.448-0.004c0.147-0.031 0.287-0.090 0.412-0.175s0.231-0.194 0.313-0.32l0.090-0.141c0.744-1.133 1.607-2.184 2.572-3.135 0.87-0.901 1.921-1.607 3.085-2.070 0.445-0.19 0.933-0.256 1.413-0.191s0.932 0.26 1.31 0.563c0.412 0.303 0.752 0.694 0.995 1.144s0.384 0.948 0.412 1.459c0.088 1.259-0.062 2.524-0.442 3.728-0.382 1.314-0.873 2.595-1.467 3.828-1.199 2.515-2.696 4.877-4.461 7.033-0.22 0.278-0.325 0.629-0.294 0.981s0.196 0.68 0.46 0.915c0.265 0.235 0.609 0.36 0.963 0.349s0.69-0.156 0.94-0.407c2.091-2.252 3.847-4.793 5.215-7.546 0.713-1.385 1.292-2.835 1.728-4.331 0.479-1.587 0.656-3.25 0.522-4.903z"></path>
<path fill="#d07cc6" style="fill: var(--color2, #d07cc6)" d="M92.198 14.843c-0.055-0.182-0.122-0.36-0.201-0.532-0.081-0.192-0.179-0.377-0.291-0.553-0.121-0.19-0.262-0.365-0.422-0.522-0.153-0.166-0.329-0.308-0.523-0.422-0.66-0.42-1.419-0.656-2.2-0.683-1.302-0.054-2.604 0.133-3.838 0.553-0.289 0.087-0.532 0.285-0.675 0.55s-0.175 0.577-0.088 0.867c0.087 0.289 0.285 0.532 0.55 0.675s0.577 0.175 0.867 0.088h0.070c0.949-0.295 1.942-0.417 2.934-0.362 0.357 0.013 0.703 0.12 1.004 0.311 0.237 0.189 0.397 0.456 0.452 0.754 0.051 0.195 0.092 0.393 0.121 0.593-1.125-0.114-2.259-0.084-3.376 0.090-0.835 0.13-1.621 0.477-2.281 1.005-0.198 0.157-0.371 0.343-0.512 0.553-0.16 0.202-0.286 0.43-0.372 0.673-0.171 0.456-0.253 0.94-0.241 1.427 0 0.241 0.060 0.482 0.1 0.713 0.063 0.252 0.157 0.495 0.281 0.723 0.234 0.454 0.58 0.841 1.005 1.125 0.718 0.427 1.527 0.679 2.361 0.733 1.045 0.058 2.093-0.003 3.124-0.181 0.188 0.178 0.428 0.294 0.684 0.332 0.34 0.049 0.685-0.039 0.96-0.244s0.457-0.511 0.507-0.851c0.182-1.188 0.29-2.386 0.322-3.587 0.092-1.285-0.016-2.576-0.322-3.828zM87.175 20.701c-0.421-0.012-0.834-0.122-1.206-0.322-0.106-0.057-0.193-0.143-0.252-0.248s-0.086-0.225-0.080-0.345c-0.013-0.128 0.006-0.258 0.055-0.377s0.127-0.224 0.226-0.306c0.334-0.234 0.72-0.383 1.125-0.432 1.002-0.136 2.019-0.116 3.014 0.060 0 0.563-0.081 1.135-0.151 1.708-0.892 0.208-1.807 0.296-2.723 0.261h-0.010z"></path>
<path fill="#d07cc6" style="fill: var(--color2, #d07cc6)" d="M26.308 16.963c-0.036-0.294-0.103-0.584-0.201-0.864-0.178-0.502-0.429-0.976-0.743-1.407-0.621-0.867-1.484-1.531-2.482-1.909-0.963-0.353-1.998-0.464-3.014-0.322-0.412 0.045-0.819 0.129-1.216 0.251-0.113-0.144-0.255-0.263-0.415-0.351s-0.337-0.143-0.519-0.161c-0.177-0.018-0.356-0.001-0.526 0.051s-0.329 0.136-0.466 0.249-0.251 0.252-0.334 0.409c-0.083 0.157-0.134 0.329-0.151 0.506-0.268 4.543-0.211 9.099 0.171 13.634 0.023 0.334 0.171 0.647 0.415 0.876s0.566 0.358 0.901 0.359h0.131c0.359-0.029 0.691-0.198 0.924-0.472 0.119-0.137 0.208-0.297 0.263-0.47s0.075-0.355 0.058-0.535c0-0.352-0.131-1.869-0.221-3.828 0.482 0.077 0.969 0.12 1.457 0.131h0.131c0.91 0.009 1.814-0.14 2.673-0.442 1.020-0.384 1.888-1.089 2.472-2.009 0.549-0.907 0.818-1.955 0.774-3.014-0.015-0.229-0.041-0.457-0.080-0.683zM18.812 15.546c0.975-0.394 2.055-0.447 3.064-0.151 0.489 0.18 0.913 0.499 1.221 0.92s0.484 0.922 0.507 1.442c0.081 0.525-0.021 1.061-0.288 1.52s-0.683 0.812-1.179 1.002c-1.068 0.397-2.221 0.511-3.346 0.332-0.040-1.668-0.050-3.446 0.020-5.064z"></path>
<path fill="#d07cc6" style="fill: var(--color2, #d07cc6)" d="M96.7 23.373c-0.18-0-0.358-0.040-0.522-0.117s-0.308-0.187-0.423-0.326c-1.808-2.12-1.116-10.65-0.733-14.227 0.036-0.342 0.206-0.657 0.474-0.873 0.132-0.107 0.285-0.187 0.449-0.236s0.334-0.064 0.504-0.046 0.334 0.069 0.484 0.15c0.15 0.081 0.283 0.191 0.389 0.324s0.188 0.285 0.236 0.448c0.048 0.163 0.064 0.335 0.046 0.504-0.623 5.767-0.563 11.394 0.121 12.278 0.152 0.191 0.247 0.421 0.276 0.664s-0.012 0.489-0.117 0.709c-0.105 0.221-0.269 0.408-0.475 0.54s-0.444 0.204-0.689 0.207h-0.020z"></path>
<path fill="#ff5f4e" style="fill: var(--color3, #ff5f4e)" d="M57.334 31.311c-0.262-0.001-0.518-0.082-0.733-0.231l-2.18-1.477c-0.288-0.195-0.486-0.495-0.552-0.836s0.006-0.694 0.201-0.982c0.194-0.288 0.495-0.486 0.836-0.552s0.694 0.006 0.982 0.201l1.326 0.894 1.005-0.884c0.26-0.232 0.6-0.352 0.948-0.335s0.675 0.17 0.911 0.426c0.117 0.127 0.208 0.275 0.267 0.437s0.085 0.334 0.077 0.506c-0.008 0.172-0.051 0.341-0.126 0.496s-0.179 0.294-0.308 0.409l-1.768 1.587c-0.243 0.218-0.558 0.34-0.884 0.342z"></path>
<path fill="#d07cc6" style="fill: var(--color2, #d07cc6)" d="M81.187 16.471c-0.061-0.661-0.252-1.303-0.563-1.889-0.334-0.664-0.859-1.213-1.507-1.577-0.621-0.331-1.307-0.52-2.009-0.553-0.605-0.032-1.211 0.002-1.809 0.101-0.637 0.118-1.251 0.339-1.819 0.653-1.164 0.682-2.021 1.787-2.391 3.085-0.174 0.601-0.265 1.223-0.271 1.849 0 0.301 0 0.603 0.050 0.904 0.044 0.341 0.118 0.677 0.221 1.005 0.42 1.277 1.302 2.352 2.472 3.014 1.087 0.618 2.331 0.907 3.579 0.832s2.448-0.511 3.454-1.254c0.219-0.182 0.362-0.438 0.402-0.719s-0.026-0.567-0.185-0.803c-0.159-0.235-0.4-0.403-0.676-0.471s-0.567-0.031-0.817 0.104c-0.654 0.408-1.406 0.63-2.177 0.64s-1.529-0.19-2.194-0.58c-0.512-0.298-0.919-0.747-1.165-1.286l6.189-0.231c0.259-0.010 0.507-0.108 0.702-0.278s0.327-0.402 0.373-0.657c0.126-0.621 0.173-1.256 0.141-1.889zM74.887 15.466c0.664-0.351 1.41-0.517 2.16-0.482 0.287-0.021 0.573 0.036 0.83 0.165s0.473 0.325 0.627 0.568c0.197 0.369 0.31 0.778 0.332 1.196h-5.024c0.17-0.589 0.553-1.094 1.075-1.417v-0.030z"></path>
<path fill="#d07cc6" style="fill: var(--color2, #d07cc6)" d="M35.602 22.107c-0.054-0.285-0.218-0.538-0.457-0.704s-0.533-0.23-0.819-0.18c-0.433 0.097-0.883 0.097-1.316 0-0.134-0.045-0.256-0.117-0.36-0.212s-0.187-0.211-0.243-0.34c-0.334-1.011-0.501-2.070-0.492-3.135 0-0.834 0-1.748 0-2.683 0.502 0 1.005 0 1.497 0h-0.010c0.32-0.009 0.623-0.145 0.842-0.378s0.338-0.543 0.328-0.863c-0.009-0.32-0.145-0.623-0.378-0.842s-0.543-0.338-0.863-0.328l-1.467 0.080c0-1.005 0.060-2.009 0.101-2.944v-0.090c-0.003-0.344-0.138-0.674-0.376-0.923s-0.561-0.398-0.905-0.417c-0.344-0.019-0.682 0.093-0.946 0.314s-0.434 0.534-0.476 0.876c-0.101 1.246-0.171 2.401-0.221 3.466l-1.005 0.131c-0.256 0.047-0.485 0.191-0.637 0.403s-0.215 0.474-0.177 0.732c0.010 0.133 0.047 0.263 0.107 0.381s0.145 0.224 0.247 0.31 0.22 0.151 0.347 0.191c0.127 0.040 0.261 0.054 0.394 0.042h0.653c0 1.005 0 1.959 0.080 2.803 0 0.613 0.1 1.276 0.211 2.009 0.099 0.811 0.362 1.594 0.774 2.301 0.259 0.425 0.601 0.794 1.005 1.085 0.595 0.396 1.295 0.605 2.009 0.603 0.633-0.009 1.257-0.142 1.839-0.392 0.258-0.090 0.474-0.272 0.606-0.511s0.17-0.519 0.108-0.785z"></path>
<path fill="#d07cc6" style="fill: var(--color2, #d07cc6)" d="M13.025 8.644c-0.508-1.082-1.295-2.008-2.281-2.683-1.007-0.632-2.177-0.957-3.366-0.934h-0.1c-1.186-0.014-2.357 0.269-3.406 0.824-1.036 0.619-1.873 1.522-2.411 2.602-0.862 1.904-1.278 3.98-1.216 6.069-0.096 2.113 0.339 4.217 1.266 6.119 0.546 1.042 1.357 1.922 2.351 2.552 0.997 0.623 2.141 0.97 3.316 1.005h0.452c1.054 0.013 2.094-0.25 3.014-0.764 1.032-0.633 1.867-1.541 2.411-2.622 0.909-1.904 1.34-4.001 1.256-6.109 0.002-2.087-0.436-4.152-1.286-6.059zM11.217 14.753c0.091 1.632-0.162 3.265-0.743 4.793-0.239 0.621-0.651 1.161-1.186 1.557-0.61 0.343-1.316 0.477-2.010 0.382-0.699-0.005-1.381-0.212-1.966-0.595s-1.046-0.926-1.33-1.565c-0.312-0.713-0.518-1.468-0.613-2.241-0.099-0.843-0.136-1.693-0.111-2.542-0.088-1.638 0.19-3.275 0.814-4.793 0.263-0.619 0.704-1.147 1.266-1.517 0.593-0.332 1.26-0.508 1.939-0.512 0.678-0.005 1.34 0.202 1.893 0.593s0.97 0.946 1.191 1.587c0.617 1.541 0.908 3.194 0.854 4.853z"></path>
<path fill="#ff5f4e" style="fill: var(--color3, #ff5f4e)" d="M80.232 5.298c0-0.352 0-0.703 0-1.065s0-0.723 0-1.005c0.013-0.090 0.007-0.181-0.018-0.268s-0.067-0.168-0.125-0.238c-0.058-0.070-0.129-0.127-0.21-0.168s-0.169-0.064-0.26-0.069c-0.085-0.011-0.172-0.006-0.255 0.016s-0.161 0.060-0.229 0.113c-0.068 0.052-0.125 0.117-0.168 0.192s-0.071 0.156-0.082 0.242c-0.056 0.393-0.083 0.789-0.080 1.186-0.020 0.388-0.020 0.777 0 1.165 0.059 0.79 0.214 1.569 0.462 2.321 0.021 0.075 0.056 0.146 0.103 0.207s0.107 0.113 0.175 0.152 0.142 0.064 0.22 0.074c0.077 0.010 0.156 0.004 0.231-0.016s0.146-0.056 0.207-0.103c0.062-0.048 0.113-0.107 0.152-0.175s0.064-0.142 0.074-0.22c0.010-0.077 0.004-0.156-0.016-0.231-0.112-0.698-0.172-1.403-0.181-2.11z"></path>
<path fill="#ff5f4e" style="fill: var(--color3, #ff5f4e)" d="M79.619 2.093c0.087 0.022 0.177 0.025 0.265 0.010s0.172-0.050 0.246-0.1 0.137-0.116 0.183-0.192c0.047-0.076 0.077-0.162 0.089-0.25 0.029-0.088 0.041-0.182 0.033-0.274s-0.034-0.183-0.077-0.266c-0.043-0.083-0.103-0.155-0.174-0.215s-0.155-0.103-0.244-0.129c-0.087-0.022-0.177-0.025-0.266-0.010s-0.172 0.050-0.246 0.1c-0.074 0.050-0.137 0.116-0.184 0.192s-0.077 0.162-0.089 0.25c-0.029 0.088-0.041 0.182-0.033 0.274s0.034 0.183 0.077 0.266 0.103 0.155 0.174 0.215c0.072 0.059 0.155 0.103 0.244 0.129z"></path>
<path fill="#ff5f4e" style="fill: var(--color3, #ff5f4e)" d="M85.276 0.003c-0.172 0.018-0.329 0.103-0.439 0.236s-0.161 0.305-0.144 0.477c0 0 0.080 0.854 0.161 2.010-0.249-0.044-0.501-0.067-0.754-0.070-0.477-0.007-0.95 0.075-1.397 0.241-0.499 0.197-0.922 0.549-1.206 1.005-0.266 0.456-0.392 0.98-0.362 1.507v0.362c0.027 0.143 0.064 0.284 0.111 0.422 0.096 0.252 0.228 0.489 0.392 0.703 0.315 0.422 0.749 0.74 1.246 0.914 0.483 0.17 1.001 0.218 1.507 0.141 0.211-0.034 0.42-0.084 0.623-0.151 0.055 0.073 0.124 0.133 0.204 0.176s0.168 0.069 0.258 0.075c0.164 0.003 0.323-0.057 0.444-0.167s0.196-0.263 0.209-0.426c0.115-2.291 0.068-4.588-0.141-6.872-0.018-0.172-0.103-0.329-0.236-0.439s-0.305-0.161-0.477-0.144zM83.377 6.524c-0.253-0.087-0.475-0.247-0.638-0.459s-0.259-0.469-0.276-0.736c-0.043-0.269 0.006-0.544 0.139-0.781s0.343-0.422 0.594-0.525c0.544-0.222 1.138-0.291 1.718-0.201 0 0.844 0.060 1.758 0 2.592-0.486 0.208-1.027 0.247-1.537 0.111z"></path>
<path fill="#ff5f4e" style="fill: var(--color3, #ff5f4e)" d="M76.103 4.886c0.784-0.814 1.587-1.809 1.628-1.859 0.053-0.067 0.093-0.145 0.115-0.228s0.029-0.17 0.017-0.255c-0.011-0.085-0.039-0.167-0.083-0.242s-0.102-0.139-0.171-0.19c-0.134-0.108-0.305-0.16-0.476-0.143s-0.329 0.101-0.439 0.233c-0.62 0.79-1.292 1.538-2.010 2.241 0-1.085 0.080-2.361 0.211-3.728 0.014-0.171-0.039-0.341-0.147-0.474s-0.265-0.219-0.435-0.239c-0.174-0.017-0.348 0.036-0.484 0.147s-0.222 0.271-0.239 0.446c-0.191 2.2-0.533 6.43 0.372 7.485 0.060 0.075 0.137 0.134 0.224 0.174s0.182 0.059 0.278 0.057c0.151-0.001 0.296-0.055 0.412-0.151 0.066-0.054 0.121-0.121 0.16-0.197s0.064-0.158 0.072-0.244c0.007-0.085-0.002-0.171-0.028-0.252s-0.068-0.157-0.124-0.222c-0.187-0.455-0.276-0.945-0.261-1.437h0.111c0 0 1.326 0 2.080 2.010 0.048 0.121 0.131 0.225 0.238 0.298s0.234 0.113 0.364 0.114c0.083-0.002 0.164-0.019 0.241-0.050 0.161-0.063 0.291-0.187 0.36-0.345s0.074-0.338 0.011-0.499c-0.342-1.035-1.054-1.908-1.999-2.452z"></path>
<path fill="#ff5f4e" style="fill: var(--color3, #ff5f4e)" d="M91.787 5.439c-0.292-0.276-0.636-0.492-1.012-0.633s-0.777-0.206-1.179-0.191c-0.37-0-0.735-0.076-1.075-0.221-0.080-0.070-0.080-0.121-0.060-0.181s0.322-0.402 0.784-0.452c0.417-0.084 0.848-0.063 1.256 0.060 0.133 0.105 0.303 0.154 0.472 0.136s0.325-0.101 0.435-0.232c0.108-0.131 0.162-0.299 0.148-0.469s-0.093-0.328-0.221-0.44c-0.181-0.171-0.774-0.543-2.241-0.362-0.409 0.022-0.803 0.161-1.136 0.399s-0.591 0.567-0.743 0.947c-0.089 0.274-0.094 0.569-0.015 0.846s0.238 0.525 0.457 0.712c0.534 0.378 1.175 0.572 1.829 0.553 0.482 0 1.125 0.111 1.296 0.322 0.012 0.021 0.019 0.046 0.019 0.070s-0.006 0.049-0.019 0.070c-0.060 0.131-0.311 0.372-0.915 0.432-0.585 0.067-1.175-0.064-1.678-0.372-0.063-0.074-0.141-0.133-0.229-0.173s-0.184-0.060-0.281-0.058c-0.097 0.002-0.192 0.025-0.278 0.068s-0.163 0.105-0.223 0.18c-0.060 0.076-0.102 0.164-0.124 0.258s-0.022 0.192-0.001 0.287c0.021 0.094 0.062 0.183 0.121 0.26s0.135 0.139 0.221 0.183c0.642 0.438 1.403 0.669 2.181 0.663h0.432c0.414-0.003 0.82-0.119 1.174-0.335s0.643-0.524 0.835-0.891c0.094-0.238 0.123-0.497 0.082-0.75s-0.148-0.49-0.313-0.687z"></path>
</symbol>

<symbol id="icon-phone" viewBox="0 0 32 32">
<path fill="#fff" style="fill: var(--color1, #fff)" d="M27.317 4.667c-3.010-3-7.024-4.667-11.261-4.667-8.808 0-15.944 7.111-15.944 15.889 0 2.778 0.78 5.556 2.118 7.889l-2.23 8.222 8.474-2.222c2.341 1.222 4.906 1.889 7.582 1.889 8.808 0 15.944-7.111 15.944-15.889-0.112-4.111-1.673-8.111-4.683-11.111zM23.749 21.555c-0.334 0.889-1.895 1.778-2.676 1.889-0.669 0.111-1.561 0.111-2.453-0.111-0.557-0.222-1.338-0.445-2.23-0.889-4.014-1.667-6.578-5.667-6.801-6-0.223-0.222-1.672-2.111-1.672-4.111s1.004-2.889 1.338-3.333c0.335-0.444 0.78-0.444 1.115-0.444 0.223 0 0.557 0 0.78 0s0.557-0.111 0.892 0.667c0.335 0.778 1.115 2.778 1.226 2.889 0.111 0.222 0.111 0.444 0 0.667s-0.223 0.444-0.446 0.667c-0.223 0.222-0.446 0.556-0.557 0.667-0.223 0.222-0.446 0.444-0.223 0.778 0.223 0.444 1.003 1.667 2.23 2.778 1.561 1.333 2.787 1.778 3.233 2s0.669 0.111 0.892-0.111c0.223-0.222 1.003-1.111 1.226-1.555s0.558-0.333 0.892-0.222 2.341 1.111 2.676 1.333c0.446 0.222 0.669 0.333 0.78 0.444 0.112 0.333 0.112 1.111-0.223 2z"></path>
</symbol>

<symbol id="icon-facebook" viewBox="0 0 32 32">
<path fill="none" stroke="#fff"  style="stroke: var(--color1, #fff)" stroke-linejoin="round" stroke-linecap="round" stroke-miterlimit="3" stroke-width="3" d="M19 6h5v-6h-5c-3.86 0-7 3.14-7 7v3h-4v6h4v16h6v-16h5l1-6h-6v-3c0-0.542 0.458-1 1-1z"></path>
</symbol>

</svg>