<svg xmlns="http://www.w3.org/2000/svg" style="display: none;" >

<symbol id="icon-instagram" viewBox="0 0 32 32">
<path fill="none" stroke="#fff" style="stroke: var(--color1, #fff)" stroke-linejoin="round" stroke-linecap="round" stroke-miterlimit="4" stroke-width="3.2" d="M22.4 3.2h-12.8c-3.535 0-6.4 2.865-6.4 6.4v12.8c0 3.535 2.865 6.4 6.4 6.4h12.8c3.535 0 6.4-2.865 6.4-6.4v-12.8c0-3.535-2.865-6.4-6.4-6.4z"></path>
<path fill="none" stroke="#fff" style="stroke: var(--color1, #fff)" stroke-linejoin="round" stroke-linecap="round" stroke-miterlimit="4" stroke-width="3.2" d="M21.12 15.194c0.158 1.065-0.024 2.153-0.52 3.109s-1.281 1.731-2.243 2.215c-0.962 0.484-2.052 0.653-3.115 0.482s-2.045-0.673-2.807-1.435c-0.761-0.761-1.264-1.744-1.435-2.807s-0.003-2.153 0.482-3.115 1.259-1.747 2.215-2.243c0.956-0.496 2.044-0.678 3.109-0.52 1.087 0.161 2.092 0.667 2.869 1.444s1.283 1.783 1.444 2.869z"></path>
<path fill="none" stroke="#fff" style="stroke: var(--color1, #fff)" stroke-linejoin="round" stroke-linecap="round" stroke-miterlimit="4" stroke-width="3.2" d="M23.040 8.96h0.013"></path>
</symbol>

<symbol id="icon-logo" viewBox="0 0 99 32">
<path fill="#d07cc6" style="fill: var(--color1, #d07cc6)" d="M40.645 21.434c-0.844-1.004-1.065-5.164-0.844-7.495 0.004-0.038 0.006-0.082 0.006-0.126 0-0.7-0.533-1.274-1.216-1.34l-0.005-0h-0.161c-0.702 0.002-1.278 0.536-1.346 1.22l-0 0.006c0 0.071-0.613 7.033 1.477 9.495 0.245 0.284 0.603 0.464 1.003 0.471l0.001 0c0.321 0.003 0.631-0.111 0.875-0.32 0.271-0.231 0.441-0.56 0.472-0.916 0.009-0.058 0.014-0.124 0.014-0.192 0-0.304-0.104-0.584-0.278-0.806l0.002 0.003zM38.224 11.527c0.117 0.035 0.251 0.055 0.389 0.055 0.697 0 1.275-0.506 1.387-1.171l0.001-0.008c0.031-0.114 0.049-0.246 0.049-0.382 0-0.728-0.517-1.336-1.204-1.476l-0.010-0.002c-0.113-0.033-0.243-0.052-0.377-0.052-0.698 0-1.276 0.512-1.38 1.18l-0.001 0.008c-0.033 0.117-0.052 0.251-0.052 0.39 0 0.719 0.51 1.318 1.187 1.457l0.010 0.002zM69.903 9.91c-0.102-0.99-0.391-1.892-0.832-2.701l0.019 0.037c-0.472-0.875-1.123-1.597-1.909-2.137l-0.020-0.013c-0.768-0.563-1.701-0.947-2.715-1.073l-0.028-0.003c-0.17-0.017-0.367-0.026-0.566-0.026-0.836 0-1.633 0.169-2.358 0.474l0.040-0.015c-1.595 0.717-2.937 1.737-4.006 2.997l-0.013 0.016c-0.601 0.671-1.167 1.406-1.675 2.182l-0.043 0.070-0.292-0.422c-0.502-0.603-1.028-1.145-1.592-1.644l-0.016-0.014c-1.182-1.116-2.629-1.965-4.235-2.443l-0.075-0.019c-0.432-0.132-0.929-0.207-1.443-0.207-1.678 0-3.168 0.807-4.103 2.054l-0.010 0.013c-0.993 1.373-1.589 3.091-1.589 4.948 0 0.027 0 0.053 0 0.080l-0-0.004c0.035 3.389 1.113 6.52 2.928 9.093l-0.034-0.051c1.714 2.555 3.868 4.675 6.375 6.297l0.086 0.052c0.192 0.117 0.424 0.187 0.673 0.187 0.722 0 1.307-0.585 1.307-1.307 0-0.389-0.17-0.739-0.44-0.978l-0.001-0.001c-2.066-1.669-3.806-3.639-5.179-5.859l-0.057-0.099c-1.287-2.033-2.075-4.495-2.139-7.136l-0-0.017c-0.001-0.045-0.002-0.099-0.002-0.152 0-1.068 0.327-2.060 0.887-2.88l-0.011 0.018c0.325-0.499 0.88-0.824 1.511-0.824 0.177 0 0.348 0.026 0.51 0.073l-0.013-0.003c1.148 0.315 2.224 0.851 3.165 1.578 1.088 0.776 2.042 1.614 2.903 2.54l0.011 0.011c0.093 0.142 0.213 0.266 0.352 0.363 0.177 0.118 0.394 0.188 0.628 0.188 0.4 0 0.752-0.205 0.957-0.515l0.003-0.004 0.090-0.14c0.78-1.177 1.627-2.204 2.57-3.133l0.002-0.002c0.85-0.88 1.877-1.582 3.025-2.049l0.059-0.021c0.31-0.136 0.671-0.215 1.051-0.215 0.635 0 1.219 0.222 1.677 0.592l-0.005-0.004c0.811 0.601 1.347 1.533 1.407 2.593l0 0.009c0.088 1.26-0.062 2.524-0.443 3.728-0.437 1.491-0.936 2.76-1.531 3.973l0.065-0.146c-1.291 2.681-2.778 4.991-4.508 7.094l0.048-0.060c-0.184 0.233-0.294 0.531-0.294 0.854 0 0.766 0.621 1.387 1.387 1.387 0.381 0 0.726-0.154 0.977-0.403l-0 0c2.025-2.176 3.764-4.66 5.131-7.363l0.084-0.183c0.649-1.226 1.236-2.662 1.684-4.157l0.044-0.172c0.359-1.146 0.565-2.464 0.565-3.831 0-0.378-0.016-0.751-0.047-1.121l0.003 0.048zM92.198 14.843c-0.064-0.212-0.133-0.388-0.212-0.559l0.011 0.026c-0.091-0.214-0.188-0.395-0.299-0.566l0.009 0.014c-0.126-0.197-0.266-0.368-0.422-0.522l-0-0c-0.151-0.163-0.323-0.303-0.512-0.416l-0.010-0.006c-0.624-0.403-1.38-0.653-2.192-0.682l-0.008-0c-1.303-0.053-2.604 0.133-3.838 0.552-0.473 0.145-0.812 0.578-0.812 1.090 0 0.629 0.51 1.138 1.138 1.138 0.116 0 0.229-0.017 0.334-0.050l-0.008 0.002h0.071c0.738-0.238 1.588-0.375 2.469-0.375 0.163 0 0.326 0.005 0.487 0.014l-0.022-0.001c0.356 0.013 0.703 0.121 1.004 0.311 0.237 0.189 0.397 0.457 0.452 0.754 0.051 0.196 0.092 0.394 0.121 0.593-0.401-0.043-0.866-0.068-1.336-0.068-0.72 0-1.427 0.058-2.115 0.169l0.076-0.010c-0.876 0.14-1.65 0.496-2.29 1.012l0.009-0.007c-0.198 0.158-0.367 0.34-0.507 0.544l-0.005 0.009c-0.16 0.203-0.286 0.43-0.372 0.673-0.153 0.397-0.242 0.856-0.242 1.336 0 0.032 0 0.064 0.001 0.096l-0-0.005c0 0.242 0.060 0.483 0.1 0.714 0.062 0.252 0.157 0.495 0.281 0.724 0.235 0.453 0.58 0.841 1.004 1.125 0.719 0.427 1.528 0.678 2.362 0.733 0.228 0.013 0.495 0.021 0.763 0.021 0.834 0 1.651-0.074 2.445-0.215l-0.084 0.012c0.188 0.179 0.428 0.294 0.684 0.332 0.055 0.008 0.119 0.013 0.184 0.013 0.65 0 1.187-0.478 1.281-1.101l0.001-0.007c0.171-1.050 0.286-2.289 0.321-3.547l0.001-0.039c0.020-0.266 0.032-0.576 0.032-0.889 0-1.043-0.129-2.056-0.372-3.024l0.018 0.085zM87.175 20.7c-0.444-0.013-0.857-0.13-1.221-0.328l0.014 0.007c-0.2-0.109-0.333-0.318-0.333-0.557 0-0.013 0-0.025 0.001-0.038l-0 0.002c-0.002-0.023-0.004-0.051-0.004-0.078 0-0.243 0.111-0.46 0.284-0.604l0.001-0.001c0.333-0.234 0.72-0.382 1.125-0.432 0.395-0.056 0.85-0.089 1.314-0.089 0.601 0 1.189 0.054 1.76 0.158l-0.060-0.009c0 0.563-0.081 1.135-0.151 1.708-0.7 0.171-1.505 0.269-2.332 0.269-0.137 0-0.274-0.003-0.41-0.008l0.020 0.001h-0.010zM26.308 16.964c-0.040-0.323-0.11-0.615-0.21-0.893l0.009 0.029c-0.193-0.537-0.444-1.002-0.754-1.421l0.011 0.015c-0.618-0.857-1.462-1.516-2.445-1.897l-0.037-0.013c-0.639-0.242-1.377-0.381-2.148-0.381-0.306 0-0.606 0.022-0.9 0.064l0.034-0.004c-0.412 0.044-0.82 0.129-1.216 0.251-0.252-0.317-0.638-0.519-1.072-0.519-0.139 0-0.272 0.021-0.399 0.059l0.010-0.003c-0.519 0.16-0.899 0.613-0.951 1.161l-0 0.005c-0.267 4.542-0.21 9.099 0.171 13.634 0.049 0.69 0.619 1.232 1.316 1.236h0.131c0.371-0.030 0.697-0.206 0.923-0.469l0.002-0.002c0.204-0.235 0.328-0.543 0.328-0.88 0-0.044-0.002-0.088-0.006-0.13l0 0.005c0-0.352-0.131-1.869-0.221-3.828 0.483 0.077 0.969 0.121 1.458 0.131h0.13c0.025 0 0.054 0 0.083 0 0.928 0 1.819-0.162 2.644-0.459l-0.054 0.017c1.038-0.398 1.886-1.097 2.459-1.989l0.012-0.020c0.549-0.907 0.818-1.956 0.773-3.015-0.017-0.257-0.045-0.491-0.086-0.721l0.006 0.039zM18.812 15.547c0.518-0.215 1.119-0.34 1.749-0.34 0.469 0 0.921 0.069 1.348 0.197l-0.033-0.009c0.982 0.368 1.679 1.278 1.729 2.356l0 0.006c0.017 0.106 0.027 0.229 0.027 0.353 0 0.984-0.613 1.826-1.478 2.163l-0.016 0.005c-0.685 0.262-1.476 0.414-2.304 0.414-0.368 0-0.73-0.030-1.081-0.088l0.038 0.005c-0.040-1.668-0.050-3.446 0.020-5.064zM96.7 23.373c-0.378-0.001-0.717-0.172-0.943-0.44l-0.001-0.002c-1.808-2.12-1.116-10.651-0.733-14.228 0.070-0.656 0.62-1.163 1.289-1.163 0.228 0 0.442 0.059 0.628 0.162l-0.007-0.003c0.407 0.226 0.679 0.653 0.679 1.144 0 0.047-0.002 0.093-0.007 0.138l0.001-0.006c-0.623 5.767-0.563 11.393 0.121 12.277 0.177 0.221 0.283 0.505 0.283 0.814 0 0.203-0.046 0.395-0.129 0.567l0.003-0.008c-0.213 0.439-0.652 0.739-1.163 0.747h-0.021z"></path>
<path fill="#ff5f4e" style="fill: var(--color2, #ff5f4e)" d="M57.333 31.311c-0.274-0.001-0.528-0.088-0.737-0.234l0.004 0.003-2.18-1.477c-0.35-0.239-0.576-0.635-0.576-1.085 0-0.723 0.586-1.309 1.309-1.309 0.274 0 0.528 0.084 0.738 0.227l-0.005-0.003 1.326 0.894 1.004-0.884c0.233-0.209 0.543-0.336 0.883-0.336 0.566 0 1.050 0.355 1.24 0.854l0.003 0.009c0.049 0.132 0.078 0.284 0.078 0.443 0 0.385-0.167 0.73-0.433 0.967l-0.001 0.001-1.769 1.588c-0.233 0.21-0.543 0.34-0.883 0.342h-0.001z"></path>
<path fill="#d07cc6" style="fill: var(--color1, #d07cc6)" d="M81.187 16.471c-0.066-0.701-0.267-1.342-0.576-1.916l0.013 0.027c-0.342-0.669-0.858-1.208-1.488-1.568l-0.018-0.010c-0.582-0.316-1.268-0.517-1.998-0.552l-0.011-0c-0.132-0.007-0.287-0.012-0.442-0.012-0.483 0-0.956 0.041-1.416 0.119l0.049-0.007c-0.684 0.13-1.294 0.357-1.849 0.669l0.030-0.016c-1.151 0.683-2.005 1.763-2.382 3.047l-0.009 0.037c-0.166 0.552-0.265 1.188-0.272 1.845l-0 0.004c0 0.302 0 0.603 0.051 0.904 0.044 0.341 0.117 0.677 0.22 1.004 0.435 1.297 1.311 2.349 2.446 3.001l0.026 0.014c0.917 0.53 2.018 0.843 3.192 0.843 1.446 0 2.781-0.475 3.858-1.278l-0.017 0.012c0.251-0.212 0.41-0.526 0.41-0.878 0-0.633-0.513-1.146-1.146-1.146-0.198 0-0.383 0.050-0.546 0.138l0.006-0.003c-0.634 0.402-1.407 0.641-2.235 0.641-0.787 0-1.524-0.216-2.155-0.591l0.019 0.011c-0.511-0.301-0.913-0.741-1.158-1.269l-0.007-0.018 6.189-0.231c0.538-0.021 0.979-0.413 1.074-0.927l0.001-0.007c0.096-0.451 0.15-0.969 0.15-1.5 0-0.137-0.004-0.273-0.011-0.408l0.001 0.019zM74.887 15.467c0.57-0.307 1.247-0.487 1.966-0.487 0.068 0 0.136 0.002 0.204 0.005l-0.010-0c0.035-0.003 0.076-0.004 0.117-0.004 0.561 0 1.055 0.291 1.337 0.731l0.004 0.006c0.196 0.37 0.309 0.778 0.331 1.196h-5.022c0.177-0.601 0.559-1.095 1.064-1.411l0.010-0.006v-0.029zM35.602 22.107c-0.1-0.516-0.548-0.9-1.086-0.9-0.067 0-0.133 0.006-0.197 0.017l0.007-0.001c-0.198 0.046-0.425 0.073-0.658 0.073s-0.46-0.026-0.678-0.077l0.020 0.004c-0.272-0.093-0.488-0.292-0.6-0.546l-0.003-0.006c-0.312-0.913-0.493-1.966-0.493-3.060 0-0.026 0-0.052 0-0.078l-0 0.004v-2.683h1.487c0.651-0.020 1.171-0.552 1.171-1.206 0-0.666-0.54-1.206-1.206-1.206-0.013 0-0.025 0-0.037 0.001l0.002-0-1.467 0.080c0-1.004 0.060-2.009 0.1-2.943v-0.091c-0.010-0.741-0.613-1.339-1.356-1.339-0.69 0-1.259 0.515-1.345 1.181l-0.001 0.007c-0.074 0.819-0.154 2.021-0.212 3.228l-0.009 0.239-1.004 0.131c-0.472 0.088-0.825 0.497-0.825 0.988 0 0.052 0.004 0.103 0.012 0.152l-0.001-0.006c0.041 0.521 0.473 0.929 1.002 0.929 0.033 0 0.066-0.002 0.098-0.005l-0.004 0h0.653c0 1.004 0 1.959 0.080 2.804 0 0.613 0.1 1.276 0.212 2.009 0.099 0.812 0.362 1.595 0.773 2.301 0.26 0.425 0.601 0.794 1.004 1.084 0.596 0.396 1.295 0.606 2.010 0.604 0.667-0.009 1.297-0.153 1.87-0.404l-0.031 0.012c0.436-0.155 0.742-0.563 0.742-1.044 0-0.090-0.011-0.177-0.031-0.26l0.002 0.008zM13.025 8.644c-0.524-1.1-1.301-2.005-2.259-2.668l-0.022-0.015c-0.922-0.586-2.045-0.934-3.25-0.934-0.041 0-0.081 0-0.121 0.001l0.006-0h-0.1c-0.026-0-0.056-0.001-0.086-0.001-1.215 0-2.358 0.305-3.358 0.842l0.038-0.019c-1.036 0.627-1.859 1.511-2.395 2.567l-0.017 0.036c-0.772 1.664-1.222 3.611-1.222 5.663 0 0.142 0.002 0.284 0.006 0.426l-0.001-0.021c-0.008 0.171-0.013 0.371-0.013 0.572 0 2.019 0.472 3.927 1.313 5.62l-0.033-0.074c0.56 1.054 1.357 1.915 2.324 2.535l0.027 0.016c0.942 0.598 2.082 0.967 3.305 1.004l0.010 0h0.452c0.023 0 0.051 0 0.078 0 1.078 0 2.090-0.283 2.966-0.779l-0.030 0.016c1.032-0.639 1.854-1.529 2.394-2.586l0.017-0.037c0.799-1.636 1.266-3.559 1.266-5.592 0-0.182-0.004-0.362-0.011-0.542l0.001 0.026c0-0.004 0-0.010 0-0.015 0-2.188-0.474-4.266-1.324-6.137l0.038 0.093zM11.217 14.753c0.011 0.193 0.018 0.419 0.018 0.647 0 1.49-0.28 2.915-0.789 4.224l0.027-0.079c-0.249 0.636-0.657 1.164-1.177 1.552l-0.009 0.007c-0.453 0.259-0.995 0.411-1.573 0.411-0.154 0-0.305-0.011-0.453-0.032l0.017 0.002c-1.463-0.011-2.719-0.885-3.287-2.137l-0.009-0.023c-0.293-0.652-0.509-1.408-0.609-2.2l-0.004-0.040c-0.075-0.606-0.118-1.308-0.118-2.019 0-0.184 0.003-0.367 0.009-0.55l-0.001 0.027c-0.010-0.176-0.016-0.383-0.016-0.591 0-1.516 0.305-2.96 0.857-4.275l-0.027 0.073c0.272-0.63 0.707-1.147 1.253-1.51l0.013-0.008c0.558-0.319 1.226-0.508 1.938-0.513h0.001c0.008-0 0.017-0 0.026-0 1.409 0 2.608 0.901 3.052 2.158l0.007 0.023c0.544 1.32 0.86 2.853 0.86 4.46 0 0.138-0.002 0.276-0.007 0.414l0.001-0.020z"></path>
<path fill="#ff5f4e" style="fill: var(--color2, #ff5f4e)" d="M80.232 5.298v-2.069c0.004-0.027 0.006-0.059 0.006-0.091 0-0.349-0.274-0.634-0.618-0.653l-0.002-0c-0.026-0.004-0.055-0.006-0.086-0.006-0.331 0-0.604 0.246-0.647 0.565l-0 0.003c-0.051 0.338-0.080 0.728-0.080 1.125 0 0.022 0 0.043 0 0.065l-0-0.003c-0.020 0.388-0.020 0.778 0 1.165 0.059 0.79 0.213 1.57 0.462 2.321 0.071 0.255 0.301 0.438 0.574 0.438 0.055 0 0.108-0.007 0.159-0.021l-0.004 0.001c0.254-0.071 0.437-0.301 0.437-0.573 0-0.056-0.008-0.109-0.022-0.16l0.001 0.004c-0.106-0.628-0.171-1.358-0.18-2.101l-0-0.009zM79.62 2.093c0.047 0.012 0.101 0.020 0.156 0.020 0.321 0 0.587-0.239 0.627-0.55l0-0.003c0.022-0.065 0.035-0.14 0.035-0.218 0-0.313-0.208-0.578-0.493-0.664l-0.005-0.001c-0.047-0.012-0.101-0.020-0.156-0.020-0.321 0-0.586 0.239-0.627 0.549l-0 0.003c-0.023 0.065-0.036 0.141-0.036 0.219 0 0.313 0.208 0.578 0.493 0.664l0.005 0.001zM85.276 0.004c-0.331 0.035-0.586 0.313-0.586 0.65 0 0.022 0.001 0.044 0.003 0.066l-0-0.003s0.080 0.853 0.16 2.009c-0.225-0.041-0.485-0.066-0.75-0.069l-0.003-0c-0.018-0-0.040-0.001-0.061-0.001-0.48 0-0.939 0.088-1.362 0.249l0.026-0.009c-0.507 0.204-0.921 0.553-1.199 0.995l-0.006 0.010c-0.23 0.387-0.366 0.854-0.366 1.353 0 0.054 0.002 0.108 0.005 0.162l-0-0.007v0.362c0.027 0.142 0.064 0.284 0.11 0.421 0.096 0.252 0.228 0.489 0.391 0.704 0.316 0.421 0.749 0.74 1.246 0.914 0.484 0.17 1.001 0.218 1.508 0.14 0.212-0.033 0.42-0.084 0.622-0.151 0.108 0.143 0.273 0.238 0.46 0.251l0.002 0c0.004 0 0.008 0 0.013 0 0.337 0 0.614-0.26 0.641-0.59l0-0.002c0.039-0.729 0.061-1.583 0.061-2.442 0-1.56-0.073-3.103-0.216-4.626l0.015 0.195c-0.036-0.33-0.313-0.585-0.65-0.585-0.022 0-0.044 0.001-0.066 0.003l0.003-0zM83.377 6.524c-0.51-0.179-0.877-0.64-0.914-1.191l-0-0.004c-0.010-0.057-0.015-0.123-0.015-0.191 0-0.501 0.306-0.931 0.741-1.113l0.008-0.003c0.361-0.151 0.78-0.239 1.22-0.239 0.176 0 0.349 0.014 0.517 0.041l-0.019-0.002c0 0.844 0.060 1.758 0 2.592-0.274 0.12-0.593 0.19-0.928 0.19-0.217 0-0.427-0.029-0.626-0.084l0.017 0.004zM76.103 4.886c0.539-0.57 1.071-1.175 1.58-1.8l0.046-0.059c0.087-0.109 0.139-0.248 0.139-0.399 0-0.21-0.101-0.397-0.257-0.514l-0.002-0.001c-0.111-0.091-0.255-0.145-0.411-0.145-0.202 0-0.382 0.091-0.502 0.235l-0.001 0.001c-0.647 0.819-1.304 1.55-2.006 2.236l-0.004 0.004c0-1.084 0.080-2.361 0.211-3.727 0.001-0.016 0.002-0.035 0.002-0.054 0-0.339-0.254-0.618-0.581-0.658l-0.003-0c-0.019-0.002-0.041-0.003-0.064-0.003-0.342 0-0.624 0.259-0.659 0.592l-0 0.003c-0.191 2.201-0.533 6.431 0.372 7.485 0.115 0.142 0.289 0.231 0.484 0.231 0.006 0 0.013-0 0.019-0l-0.001 0c0.336-0.003 0.612-0.26 0.644-0.588l0-0.003c0.002-0.017 0.002-0.037 0.002-0.057 0-0.16-0.058-0.306-0.154-0.418l0.001 0.001c-0.167-0.394-0.264-0.852-0.264-1.332 0-0.037 0.001-0.073 0.002-0.109l-0 0.005h0.111s1.326 0 2.080 2.009c0.098 0.242 0.33 0.41 0.602 0.412h0c0.087-0.003 0.169-0.021 0.245-0.052l-0.005 0.002c0.246-0.097 0.417-0.333 0.417-0.609 0-0.085-0.016-0.165-0.045-0.24l0.002 0.004c-0.355-1.052-1.062-1.905-1.979-2.439l-0.021-0.011zM91.787 5.439c-0.539-0.512-1.269-0.826-2.073-0.826-0.041 0-0.083 0.001-0.124 0.003l0.006-0c-0.37 0-0.735-0.076-1.076-0.221-0.080-0.070-0.080-0.121-0.060-0.18s0.322-0.403 0.784-0.452c0.417-0.084 0.848-0.062 1.256 0.060 0.11 0.088 0.251 0.141 0.404 0.141 0.202 0 0.382-0.092 0.501-0.236l0.001-0.001c0.093-0.112 0.15-0.258 0.15-0.417 0-0.196-0.086-0.372-0.222-0.492l-0.001-0.001c-0.181-0.171-0.774-0.542-2.241-0.361-0.852 0.048-1.567 0.584-1.874 1.331l-0.005 0.014c-0.045 0.134-0.070 0.287-0.070 0.447 0 0.444 0.198 0.841 0.511 1.108l0.002 0.002c0.533 0.378 1.175 0.572 1.828 0.553 0.482 0 1.125 0.11 1.296 0.322 0.012 0.020 0.019 0.044 0.019 0.070s-0.007 0.050-0.019 0.071l0-0.001c-0.060 0.131-0.311 0.372-0.915 0.432-0.090 0.011-0.193 0.017-0.298 0.017-0.51 0-0.986-0.145-1.39-0.395l0.011 0.006c-0.12-0.14-0.298-0.229-0.496-0.229-0.36 0-0.652 0.292-0.652 0.652 0 0.252 0.142 0.47 0.351 0.579l0.004 0.002c0.602 0.415 1.347 0.663 2.15 0.663 0.011 0 0.021-0 0.032-0h0.43c0.868-0.008 1.62-0.497 2.003-1.213l0.006-0.012c0.063-0.155 0.1-0.335 0.1-0.524 0-0.348-0.125-0.667-0.333-0.915l0.002 0.002z"></path>
</symbol>

<symbol id="icon-phone" viewBox="0 0 32 32" >
<path fill="#fff" style="fill: var(--color1, #fff)" d="M27.317 4.667c-3.010-3-7.024-4.667-11.261-4.667-8.808 0-15.944 7.111-15.944 15.889 0 2.778 0.78 5.556 2.118 7.889l-2.23 8.222 8.474-2.222c2.341 1.222 4.906 1.889 7.582 1.889 8.808 0 15.944-7.111 15.944-15.889-0.112-4.111-1.673-8.111-4.683-11.111zM23.749 21.555c-0.334 0.889-1.895 1.778-2.676 1.889-0.669 0.111-1.561 0.111-2.453-0.111-0.557-0.222-1.338-0.445-2.23-0.889-4.014-1.667-6.578-5.667-6.801-6-0.223-0.222-1.672-2.111-1.672-4.111s1.004-2.889 1.338-3.333c0.335-0.444 0.78-0.444 1.115-0.444 0.223 0 0.557 0 0.78 0s0.557-0.111 0.892 0.667c0.335 0.778 1.115 2.778 1.226 2.889 0.111 0.222 0.111 0.444 0 0.667s-0.223 0.444-0.446 0.667c-0.223 0.222-0.446 0.556-0.557 0.667-0.223 0.222-0.446 0.444-0.223 0.778 0.223 0.444 1.003 1.667 2.23 2.778 1.561 1.333 2.787 1.778 3.233 2s0.669 0.111 0.892-0.111c0.223-0.222 1.003-1.111 1.226-1.555s0.558-0.333 0.892-0.222 2.341 1.111 2.676 1.333c0.446 0.222 0.669 0.333 0.78 0.444 0.112 0.333 0.112 1.111-0.223 2z"></path>
</symbol>

<symbol id="icon-facebook" viewBox="0 0 32 32">
<path fill="none" stroke="#fff"  style="stroke: var(--color1, #fff)" stroke-linejoin="round" stroke-linecap="round" stroke-miterlimit="3" stroke-width="3" d="M19 6h5v-6h-5c-3.86 0-7 3.14-7 7v3h-4v6h4v16h6v-16h5l1-6h-6v-3c0-0.542 0.458-1 1-1z"></path>
</symbol>

</svg>