<svg xmlns="http://www.w3.org/2000/svg" width="298" height="168" fill="none"><path fill="#fff" d="M1.5 77.5c0-21.1 1-36.5 7.4-47.5 6.5-10.8 18.6-17.8 42-21.5 23.4-3.8 67.3-6.5 110.9-6 21.8.1 43.5 1.1 62.5 3.1s35.2 5 46.2 9.3A34.2 34.2 0 0 1 289 34.5c4 9.3 6 20.6 6.6 32.2 1.4 23.3-2.3 47.7-4.3 58.8A42.4 42.4 0 0 1 277 152a57.4 57.4 0 0 1-28 11 239 239 0 0 1-39.3 1.8c-5.5 0-11.1-.2-17-.4-9.7-.2-19.8-.5-30.2-.5-18.2 0-33.6.7-47.7 1.3l-22.5.8c-20.2.5-39-.1-61.9-4.5-14.2-6-21.5-19-25.2-34.7a222.7 222.7 0 0 1-3.7-49.4Z"/><path fill="url(#paint0_linear_817_1058)" d="M1.5 77.5c0-21.1 1-36.5 7.4-47.5 6.5-10.8 18.6-17.8 42-21.5 23.4-3.8 67.3-6.5 110.9-6 21.8.1 43.5 1.1 62.5 3.1s35.2 5 46.2 9.3A34.2 34.2 0 0 1 289 34.5c4 9.3 6 20.6 6.6 32.2 1.4 23.3-2.3 47.7-4.3 58.8A42.4 42.4 0 0 1 277 152a57.4 57.4 0 0 1-28 11 239 239 0 0 1-39.3 1.8c-5.5 0-11.1-.2-17-.4-9.7-.2-19.8-.5-30.2-.5-18.2 0-33.6.7-47.7 1.3l-22.5.8c-20.2.5-39-.1-61.9-4.5-14.2-6-21.5-19-25.2-34.7a222.7 222.7 0 0 1-3.7-49.4Z"/><path stroke="url(#paint1_linear_817_1058)" stroke-width="3" d="M1.5 77.5c0-21.1 1-36.5 7.4-47.5 6.5-10.8 18.6-17.8 42-21.5 23.4-3.8 67.3-6.5 110.9-6 21.8.1 43.5 1.1 62.5 3.1s35.2 5 46.2 9.3A34.2 34.2 0 0 1 289 34.5c4 9.3 6 20.6 6.6 32.2 1.4 23.3-2.3 47.7-4.3 58.8A42.4 42.4 0 0 1 277 152a57.4 57.4 0 0 1-28 11 239 239 0 0 1-39.3 1.8c-5.5 0-11.1-.2-17-.4-9.7-.2-19.8-.5-30.2-.5-18.2 0-33.6.7-47.7 1.3l-22.5.8c-20.2.5-39-.1-61.9-4.5-14.2-6-21.5-19-25.2-34.7a222.7 222.7 0 0 1-3.7-49.4Z"/><defs><linearGradient id="paint0_linear_817_1058" x1="163.1" x2="157.1" y1="150.5" y2="8.1" gradientUnits="userSpaceOnUse"><stop stop-color="#FFF6EF"/><stop offset="1" stop-color="#fff" stop-opacity="0"/></linearGradient><linearGradient id="paint1_linear_817_1058" x1="149" x2="149" y1="161.9" y2="41.9" gradientUnits="userSpaceOnUse"><stop stop-color="#EDD3D0" stop-opacity=".7"/><stop offset="1" stop-color="#fff" stop-opacity="0"/></linearGradient></defs></svg>