<svg xmlns="http://www.w3.org/2000/svg" width="1920" height="488" fill="none"><g clip-path="url(#a)"><path fill="url(#b)" d="M540.587 202.66c1.9 0 5.27-2.44 6.82-3.34a55.508 55.508 0 0 0 6.65-4.46c3-2.4 4.58-5 6.32-8.09 2.17-3.92 5.94-6.76 9.4-9.8l12.739-11.2c4-3.56 8.06-7.14 12.13-10.67a6.572 6.572 0 0 1 4.28-2c10.44-1.38 21.09-1.14 31.609-.87 1.51-4.66-2.27-10.09-7.699-11.05-5.43-.96-11.34 2.75-12 7.55 2.38-5.91-4.24-12.38-11.38-12.86-7.14-.48-13.81 3.36-18.59 8 1.87-4 3.78-8.07 3.6-12.36-.18-4.29-3-8.79-7.78-9.87-4.779-1.08-10.429 3-8.919 7.1a25.654 25.654 0 0 0-3.34-22.42c-1.48-2.19-3.77-6.18-6.2-7.68a6.592 6.592 0 0 0-5.16-.28c-6.69 1.88-10 11-4.46 15.36-2.22-4.89-8-15-15.07-15.3-9-.36-12.14 10.85-11.15 16.7.87 5.15 1.37 10.29 2.91 15.35.2-3.36-3.43-6.5-7.279-6.29-3.85.21-7 3.72-6.33 7 1.87-5.13-2.25-11.27-8.27-12.35s-12.57 3.16-13.15 8.51c3.7-7.36-5.72-16.06-14.85-15.09-9.129.97-15.769 8.77-17.099 16.73a9.903 9.903 0 0 0-1.34-12.68 13.851 13.851 0 0 0-14.37-2.45c4.89-.4 8.51-5.37 6.86-9.41-1.65-4.04-8.93-9.6-13-7.19 6.4-2.05 8.75-10.28 4.21-14.73-4.54-4.45-14.15-3.34-17.21 2-.55-4.92-2.31-10.17-6.929-13-4.62-2.83-12.57-1.44-13.81 3.37-1.72-3.81-8.45-3.86-11.83-1-3.38 2.86-8.24 5.39-9 9.43-2.57-1.91-3.41-5-4.66-7.73-1.25-2.73-3.59-5.61-7-5.7a7.001 7.001 0 0 0-6.129 3.94c-1.06 2.16-.89 3-.92 5.38.61-7.54-5.68-15.05-14.07-16.82-8.39-1.77-17.91 2.43-21.28 9.39a7.52 7.52 0 0 0 1.12-11.78c-3.54-3.2-10.33-2.9-13.49.6 5.76-.85 7.77-8.26 4-12.12-3.77-3.86-10.949-4.07-16.069-1.62-5.12 2.45-8.54 6.93-11.15 11.49 5.74-9.53 11.63-19.63 11.13-30.4s-10-22-22.32-21.51c-7.08.28-13.4 4.33-17.509 9.38a42.59 42.59 0 0 0-5.87 10.08c-.77 1.77-1.36 3.61-2.15 5.38-.37.83-.8 1.6-1.12 2.43-1.05 2.72-2.42 9.12-1.25 11.87-4.67-11-14.24-20.37-26.23-25.65-4.32-1.9-9.44-3.29-13.91-1.69-5.109 1.84-7.569 6.88-8.949 11.55a60.707 60.707 0 0 0 5 45.88c-4.59-6-9.51-12.19-16.9-15.35a21.5 21.5 0 0 0-13.94-.9c-2.078.557-4 1.584-5.62 3-.78.7-1.45 1.5-2.19 2.21-1.78 1.71-2.76 3.57-4.2 5.52 5.75-7.74-1.1-19.91-11.609-20.65 1.24-8.76-12.07-16-20.51-11.17 1.55-5-7.64-7.91-12.13-4.61-4.49 3.3-5 9.1-5.11 14.23a108.782 108.782 0 0 0-20.29-40c-2.93-3.66-6.67-7.47-11.75-7.93-6.889-.62-12.199 5.1-15.499 10.43a91.232 91.232 0 0 0-13.58 41.26c-3.12-3.6-9.23-4.93-13.92-3-4.69 1.93-12.329 5.41-11.189 9.82.16-3.06-2.5-6.05-5.93-6.66-3.43-.61-11.18-1.33-12.42 1.54-1.86-3.86-3.88-7.76-7.16-10.81-3.28-3.05-8.08-5.15-12.81-4.48-4.73.67-8.86 4.72-8 8.84-2.08-5-8.499-9.53-14.499-10.63-3.26-6.85-12.49-10.62-20.91-9.76-8.42.86-15.85 5.62-20.829 11.62-4.98 6-7.81 13.14-10.09 20.29-6.74 21.54-21.999 39.32-26.679 61.28-3 14.19-4.26 29.67 3.73 42.3 10 15.83 31.549 22.79 51.609 27.2 59.048 12.95 120.457 14.53 181.306 16 114.568 2.87 229.156 5.73 343.763 6.1 23.42.12 47.66-.07 68.869-8.7Z"/><path fill="url(#c)" d="M1446.23 204.236c-1.48 0-4.1-1.893-5.31-2.591a43.648 43.648 0 0 1-5.17-3.46c-2.33-1.862-3.56-3.879-4.91-6.276-1.69-3.041-4.62-5.244-7.31-7.602l-9.91-8.689a924.206 924.206 0 0 0-9.44-8.277 5.087 5.087 0 0 0-3.32-1.552c-8.12-1.07-16.41-.884-24.59-.674-1.17-3.616 1.77-7.828 5.99-8.573 4.22-.744 8.82 2.134 9.33 5.857-1.85-4.584 3.3-9.604 8.85-9.976 5.56-.372 10.74 2.607 14.46 6.206-1.45-3.103-2.94-6.26-2.8-9.588.14-3.328 2.33-6.819 6.05-7.657 3.72-.838 8.11 2.327 6.94 5.508a19.865 19.865 0 0 1 2.6-17.393c1.15-1.699 2.93-4.794 4.82-5.958.62-.304 1.29-.48 1.98-.517.69-.037 1.38.065 2.03.3 5.21 1.459 7.78 8.534 3.47 11.916 1.73-3.794 6.22-11.636 11.72-11.869 7-.279 9.44 8.417 8.67 12.955-.67 3.995-1.06 7.983-2.26 11.908-.16-2.607 2.67-5.042 5.66-4.88 3 .163 5.45 2.886 4.93 5.431-1.46-3.98 1.75-8.743 6.43-9.581 4.68-.838 9.77 2.452 10.22 6.602-2.87-5.71 4.45-12.459 11.55-11.706 7.1.752 12.27 6.803 13.3 12.978a7.703 7.703 0 0 1-1.28-5.108c.2-1.8 1.02-3.474 2.32-4.729a10.853 10.853 0 0 1 5.32-2.535c1.98-.336 4.01-.116 5.86.635-3.8-.31-6.62-4.166-5.33-7.3 1.28-3.134 6.94-7.447 10.11-5.578-4.98-1.59-6.81-7.975-3.28-11.427s11.01-2.591 13.39 1.552c.42-3.817 1.79-7.89 5.39-10.085 3.59-2.196 9.77-1.117 10.74 2.614 1.33-2.955 6.57-2.994 9.2-.776 2.63 2.219 6.41 4.182 7 7.316 2-1.482 2.65-3.879 3.62-5.997.97-2.118 2.79-4.352 5.45-4.422a5.44 5.44 0 0 1 4.76 3.057c.83 1.675.7 2.327.72 4.173-.48-5.849 4.42-11.675 10.94-13.048 6.53-1.373 13.93 1.885 16.55 7.285a5.877 5.877 0 0 1-1.83-1.873 5.664 5.664 0 0 1-.83-2.485c-.09-.88.03-1.768.34-2.597a5.86 5.86 0 0 1 1.45-2.184c2.75-2.482 8.03-2.25 10.49.465-4.48-.659-6.04-6.407-3.11-9.402 2.93-2.994 8.52-3.157 12.5-1.256 3.98 1.9 6.64 5.376 8.67 8.913-4.46-7.393-9.04-15.228-8.66-23.583.39-8.355 7.78-17.067 17.36-16.687 5.51.218 10.43 3.36 13.62 7.277a33.018 33.018 0 0 1 4.57 7.82c.6 1.373 1.06 2.8 1.67 4.173.29.644.62 1.241.87 1.885.82 2.11 1.88 7.075.97 9.209 3.63-8.534 11.08-15.803 20.4-19.899 3.36-1.474 7.34-2.552 10.82-1.31 3.98 1.427 5.89 5.336 6.96 8.96a46.964 46.964 0 0 1-3.89 35.591c3.57-4.654 7.4-9.456 13.15-11.908a16.755 16.755 0 0 1 10.84-.698 11 11 0 0 1 4.37 2.327c.61.543 1.13 1.164 1.7 1.715 1.39 1.326 2.15 2.77 3.27 4.282-4.47-6.004.85-15.445 9.03-16.02-.97-6.795 9.39-12.412 15.95-8.665-1.21-3.879 5.94-6.136 9.43-3.576 3.5 2.56 3.89 7.06 3.98 11.04a84.19 84.19 0 0 1 15.78-31.031c2.28-2.84 5.19-5.795 9.14-6.152 5.36-.481 9.48 3.956 12.05 8.091a70.614 70.614 0 0 1 10.56 32.008c2.43-2.793 7.18-3.825 10.83-2.327 3.65 1.497 9.59 4.197 8.7 7.618-.12-2.374 1.95-4.694 4.61-5.167 2.67-.473 8.7-1.032 9.66 1.195 1.45-2.995 3.02-6.02 5.57-8.386 2.55-2.366 6.29-3.995 9.96-3.476 3.68.52 6.9 3.662 6.23 6.858 1.61-3.879 6.61-7.393 11.27-8.246 2.54-5.314 9.72-8.239 16.27-7.572 6.54.667 12.32 4.36 16.2 9.015 3.87 4.654 6.07 10.193 7.84 15.74 5.25 16.71 17.11 30.503 20.75 47.539 2.34 11.008 3.32 23.016-2.9 32.814-7.77 12.281-24.53 17.68-40.14 21.101-45.92 10.046-93.68 11.272-141.01 12.412-89.1 2.227-178.22 4.445-267.36 4.732-18.21.093-37.07-.054-53.56-6.749Z"/><path fill="url(#d)" d="M496.247 204.236c-1.478 0-4.099-1.893-5.304-2.591a43.027 43.027 0 0 1-5.172-3.46c-2.333-1.862-3.562-3.879-4.916-6.276-1.687-3.041-4.619-5.244-7.31-7.602l-9.909-8.689a980.094 980.094 0 0 0-9.433-8.277 5.12 5.12 0 0 0-3.329-1.552c-8.12-1.07-16.403-.884-24.584-.674-1.175-3.616 1.765-7.828 5.988-8.573 4.223-.744 8.82 2.134 9.333 5.857-1.851-4.584 3.298-9.604 8.851-9.976 5.553-.372 10.74 2.607 14.458 6.206-1.455-3.103-2.94-6.26-2.8-9.588.14-3.328 2.333-6.819 6.051-7.657 3.717-.838 8.111 2.327 6.937 5.508a19.853 19.853 0 0 1 2.598-17.393c1.151-1.699 2.932-4.794 4.822-5.958a5.15 5.15 0 0 1 4.013-.217c5.203 1.459 7.777 8.534 3.468 11.916 1.727-3.794 6.222-11.636 11.721-11.869 6.999-.279 9.442 8.417 8.672 12.955-.677 3.995-1.066 7.983-2.264 11.908-.155-2.607 2.668-5.042 5.662-4.88 2.995.163 5.444 2.886 4.923 5.431-1.454-3.98 1.75-8.743 6.432-9.581 4.682-.838 9.776 2.452 10.227 6.602-2.877-5.71 4.449-12.459 11.55-11.706 7.1.752 12.265 6.803 13.299 12.978a7.662 7.662 0 0 1 1.042-9.837 10.794 10.794 0 0 1 11.176-1.9c-3.803-.31-6.618-4.166-5.335-7.3 1.283-3.134 6.945-7.447 10.111-5.578-4.978-1.59-6.806-7.975-3.275-11.427s11.005-2.591 13.385 1.552c.428-3.817 1.797-7.89 5.39-10.085 3.593-2.196 9.776-1.117 10.74 2.614 1.338-2.955 6.572-2.994 9.201-.776 2.629 2.219 6.408 4.182 6.999 7.316 1.999-1.482 2.653-3.879 3.625-5.997s2.792-4.352 5.444-4.422a5.46 5.46 0 0 1 2.814.861 5.427 5.427 0 0 1 1.953 2.196c.825 1.675.693 2.327.716 4.173-.475-5.849 4.417-11.675 10.943-13.048 6.525-1.373 13.929 1.885 16.55 7.285a5.841 5.841 0 0 1-2.664-4.358 5.827 5.827 0 0 1 1.793-4.78c2.753-2.483 8.034-2.25 10.491.465-4.479-.66-6.043-6.408-3.111-9.403 2.932-2.994 8.517-3.157 12.499-1.256 3.982 1.9 6.641 5.376 8.671 8.913-4.464-7.393-9.045-15.228-8.656-23.583.389-8.355 7.777-17.067 17.359-16.687 5.507.218 10.422 3.36 13.618 7.277a33.072 33.072 0 0 1 4.566 7.82c.598 1.373 1.057 2.8 1.672 4.173.287.644.622 1.241.871 1.885.816 2.11 1.882 7.075.972 9.209 3.632-8.534 11.075-15.803 20.4-19.899 3.36-1.474 7.342-2.552 10.818-1.31 3.974 1.427 5.888 5.336 6.961 8.96a46.991 46.991 0 0 1-3.889 35.591c3.57-4.654 7.396-9.456 13.144-11.908a16.762 16.762 0 0 1 10.842-.698 10.953 10.953 0 0 1 4.37 2.327c.607.543 1.128 1.164 1.704 1.715 1.384 1.326 2.146 2.77 3.266 4.282-4.472-6.004.856-15.445 9.03-16.02-.965-6.795 9.387-12.412 15.951-8.665-1.205-3.879 5.942-6.136 9.434-3.576 3.492 2.56 3.889 7.06 3.974 11.04a84.326 84.326 0 0 1 15.78-31.031c2.279-2.84 5.188-5.795 9.139-6.152 5.358-.481 9.488 3.956 12.055 8.091a70.651 70.651 0 0 1 10.561 32.008c2.427-2.793 7.179-3.825 10.826-2.327 3.648 1.497 9.59 4.197 8.703 7.618-.124-2.374 1.944-4.694 4.612-5.167 2.668-.473 8.695-1.032 9.66 1.195 1.446-2.995 3.017-6.02 5.568-8.386 2.551-2.366 6.284-3.995 9.963-3.476 3.679.52 6.891 3.662 6.222 6.858 1.617-3.879 6.611-7.393 11.277-8.246 2.535-5.314 9.714-8.239 16.262-7.572 6.549.667 12.327 4.36 16.201 9.015 3.873 4.654 6.074 10.193 7.847 15.74 5.242 16.71 17.11 30.503 20.748 47.539 2.34 11.008 3.31 23.016-2.899 32.814-7.777 12.281-24.538 17.68-40.139 21.101-45.925 10.046-93.686 11.272-141.011 12.412-89.105 2.227-178.226 4.445-267.362 4.732-18.214.093-37.066-.054-53.562-6.749Z"/><path fill="url(#e)" d="M1111.21 261.19c.13 0 .26 0 .38.06a1.394 1.394 0 0 0-.38-.06Z"/><path fill="url(#f)" d="M381.28 137.12c-13.193 2.2-26.369 4.42-39.529 6.66a9937.742 9937.742 0 0 0-72.999 12.7c-11.879 2.12-23.869 4.88-35.899 6.41-3.55.45-6.79-.07-10.32-.05-5.42 0-11 1.28-16.269 2.12A877.4 877.4 0 0 0 70.136 197.6c-13 4.26-27.72 10.83-28.25 21.25-.6 11.7 16.9 18.81 32.1 21.89 6.65 1.34 12.59 3.47 19.48 4.3a90.03 90.03 0 0 0 18.209.32c-9.079-4.05-16.24-10.41-20-17.76 8.22 5.047 16.42 10.11 24.6 15.19a17.003 17.003 0 0 1 4.7-11.3l6.45 15.63a55.342 55.342 0 0 1 8.16-1.46c1.83-.09 3.56.37 5.38.43 6 .23 12.45-.59 18.41-1.18a27.921 27.921 0 0 0-4.37 1.48l-8.87 3-15.42 5.27c-7.64 2.6-15.27 5.3-23 7.73-3.849 1.21-7.609 2.64-11.27 4.15a152.352 152.352 0 0 0-20.879 10.44c-4.5 2.71-9.19 6.47-8.09 10.67 1.1 4.2 7.21 6.29 12.62 7.59a260.57 260.57 0 0 0 58.079 7.09 16.102 16.102 0 0 1-4.35-12.79c5.86 4.82 11.713 9.647 17.56 14.48a12.374 12.374 0 0 1 3.72-9.69c2.48 4.627 4.953 9.263 7.419 13.91.32-1.95 3.67-2.88 6.19-2.34 2.52.54 4.45 2 6.56 3.14a30.54 30.54 0 0 0 16.52 3.34 47.012 47.012 0 0 1 7.49-.42c3.4.28 6.86.14 10.27.14 38.919 0 81.148 2.26 118.867-1.84a273.336 273.336 0 0 0-57.159 12.55c-3.89 1.31-8.68 2.3-12.449 3.83-3.31 1.34-5.89 4.1-8.44 6.12a2582.623 2582.623 0 0 0-10 7.92c8.69 4.68 18.1 10.25 28.909 11.49 5.27.6 10.18 2.59 15.21 3.87a200.875 200.875 0 0 0 34.999 5.65 54.453 54.453 0 0 1-15.769-22 111.475 111.475 0 0 0 22.229 19.36c.84-5.333 1.684-10.667 2.53-16 6.18 5.74 2.35 15 8 21.08 3.63 3.91 10.08 5.32 16.09 5.52 4.938.25 9.85.885 14.69 1.9 6.809 1.25 14.179 1.13 21.149 1.33 7.94.22 15.883.327 23.83.32 17.789 0 35.579-.46 53.349-.91 11.779-.3 23.549-.6 35.329-.77 5.18-.07 10.52.24 15.69-.27a30.526 30.526 0 0 0 7.859-2c7.38-2.8 14.92-2.78 22.79-4.2-5.16-3.73-11.15-6.91-16.43-10.59a237.111 237.111 0 0 1-15.669-11.87 192.076 192.076 0 0 1 34.159 17.93c-.8-6.71 1.53-13.61 6.49-19.22a21.682 21.682 0 0 1 3.17 17.5c2.37-6.45 8.81-12 16.999-14.56-2.06 7.46-4.103 14.917-6.129 22.37.22-.82 21.149-.49 23.269-.48 7.92 0 15.833.15 23.74.45 7.906.3 15.796.777 23.669 1.43 4.94.4 7.9 1.45 12.42.35 3.23-.8 6.68-1.23 10-1.81l20.439-3.59a12.415 12.415 0 0 1-1.41-14.3 52.408 52.408 0 0 0 13 17.56 23.998 23.998 0 0 1 10.6-9.63 7.466 7.466 0 0 0 .56 4.66 4.74 4.74 0 0 0 5 2.05c2.72-.71 3.07-3.72 5.51-4.89 2.71-1.29 6.47.61 7.23 3 .76 2.39-.49 4.8-1.71 7.05 5.63-.26 11.299-.4 16.919-.78 1.85-.12 3.35-.66 5.13-.93a81.2 81.2 0 0 1 8.28-.42c47.249-2.12 94.548-4.22 141.907-3.95 8.507.04 17.01.17 25.51.39 6.68.17 13.44.7 20.119.65a24.899 24.899 0 0 0 3.76-.28c2-.31 3.79-.86 5.8-1 7.05-.58 14.56 0 21.65.11a18.883 18.883 0 0 1-5.42-9.62c2.5 1.06 3.32 3.42 4.51 5.39 1.19 1.97 3.88 4 6.54 3.17 3.42-1.05 2.63-5.37 5.69-6.94 2.49-1.27 6.099.24 7.199 2.35 1.1 2.11.47 4.5-.18 6.72a17.121 17.121 0 0 1 8.49-3.48c3.252-.31 6.852.7 8.462 2.87 1.61 2.17.52 5.39-2.53 6.29 7.83.78 15.66 1.66 23.5 2.36 5.06.46 9.49-.72 14.46-.74 7.59 0 15.45 1.22 23 1.89l23.71 2.12c23.86 2.12 47.72 4.16 71.64 5.78l3.54.24c19.25 1.27 38.53 2.24 57.85 2.76 9.86.26 19.71.393 29.57.4 9.52 0 19.17.1 28.67-.43 1.21-.07 2.3-.33 3.47-.49 1.45-.108 2.91-.071 4.35.11 3.43.208 6.86.063 10.25-.43a46.037 46.037 0 0 0 12.63-3.68c-11.28-14.77-17-32-16.24-49a216.939 216.939 0 0 0 22.08 35.37c-.1-7.45 3.33-14.9 9.56-20.65.65 8.636-.19 17.32-2.49 25.67 7.15-8 15.18-16.56 27.34-19.63-2.94 7.007-5.87 14.007-8.8 21-.55 1.32-1.09 2.8-.3 4 .91 1.42 3.16 2 5.18 2.3a81.338 81.338 0 0 0 22.9.64c4.9-.61 8.76-3 13.74-3.52 7.63-.74 15.31-1.25 23-2 14.64-1.43 29.23-3.23 43.65-5.65a406.727 406.727 0 0 0 42.47-9.32l.83-.24c3.55-1 7.15-2.1 10-4 2.85-1.9 4.92-4.71 4.44-7.56-.48-2.85-3.14-5-5.78-7-17.15-12.71-38.73-22-62-26.78 1.99.288 3.99.475 6 .56l7.18.65a3903.958 3903.958 0 0 0 45.49 3.89c19.46 1.56 38.89 3.35 58.32 5.08 9.92.87 19.84 1.74 29.77 2.54 4.55.36 9.11.79 13.67 1 .83.055 1.67.055 2.51 0 2.55-.18 4.82-.87 7.45-.9l12-.14 6-.07c-9.13-1.5-17.28-6.18-21.63-12.42 7.94 3.86 15.88 7.723 23.8 11.59.15-1.83.36-3.78 1.85-5.22 1.49-1.44 4.77-2 6.32-.56 1.55 1.44.51 3.4-.53 5a119.64 119.64 0 0 1 16.3-7.73c2.15-.84 5.25-1.46 6.63 0 .84.92.49 2.17 0 3.22a26.7 26.7 0 0 1-7.73 9.77c.5-.42 3.76-.33 4.55-.4l5-.44 9.84-.84c2.91-.25 6.36-.95 9.27-.66 2.86.181 5.74.148 8.61-.1 6.99-.36 13.99-1.16 20.99-1.12 5.18 0 10.36 0 15.53-.27a273.865 273.865 0 0 0 30.78-3.16 255.552 255.552 0 0 0 58.14-16.13c2.54-1.06 5-2.17 7.52-3.31 4.63-2.13 9.55-4.86 10.4-8.88.68-3.24-1.52-6.43-3.93-9.2-8.1-9.32-19.38-17.12-32.5-22.44 10.04.655 20.11.805 30.16.45 3.02.051 6.04-.235 9-.85 3.35-.87 7.33-.39 10.84-.35 1.1 0 2.38 0 3-.68.91-.87.1-2.12-.67-3.07a27.44 27.44 0 0 1-6.29-18.83 77.687 77.687 0 0 1 14.24 19.29c2.15-4.85 7.8-8.73 14.49-9.94-1.49 3.333-2.98 6.667-4.46 10 .18-.41 5-1 5.7-1.11l5.93-1.16c3.76-.73 7.58-1.36 11.26-2.26a362.59 362.59 0 0 0 22.15-6.15c1.92-.6 3.84-1.21 5.74-1.83l1-.32v-41.59l-2.07-.78a1285.025 1285.025 0 0 0-78.88-26.24c-7.58-2.26-16.08-3.89-23.18-6.91a32.579 32.579 0 0 0-4.61-1.92c-11.19-3-24.5-3.82-36.19-5.52-24.42-3.573-48.89-6.93-73.43-10.07a4288.447 4288.447 0 0 0-147.74-16.33c-19.23-1.78-39.12-5.26-58.47-3-8.85 1.05-16.72.08-25.47-1.28-24.48-3.793-49-7.507-73.55-11.14-38.3-5.66-76.68-11.117-115.15-16.37 19.5.313 38.98.703 58.45 1.17-13.33-.54-26.69-1.06-40.07-1.56a8759.12 8759.12 0 0 0-51.39-1.73c-8.53-.27-17.06-.58-25.59-.76-3.18-.06-6 .38-9.18-.15-1-.17-12.44-1.74-12.42-1.09 0-1.54-.11-3.08-.16-4.61a24.5 24.5 0 0 0-9.94 2c-.39-3.233-.78-6.463-1.18-9.69a20.649 20.649 0 0 0-8.14 10.58 31.529 31.529 0 0 1-11.12-11.55c-.08 4.74 1.2 9.405 3.69 13.44-4.77-1-8.91-.3-13.69-.11-5.21.21-11-.6-16.2-.7-49.26-.953-98.53-1.503-147.792-1.65-4.64 0-8.999-.19-13.499-.63-5-.48-10.71.6-15.66 1-.43-1.74-.85-3.49-1.28-5.23a20.23 20.23 0 0 0-9.66 4.87 12.997 12.997 0 0 0-7.35-5l5 5.11-4.65.33a47.178 47.178 0 0 1-9.37-.25c-8.469-1-17.999 0-26.609 0-11.053.073-22.106.163-33.159.27-46.053.46-92.095 1.273-138.128 2.44a8712.858 8712.858 0 0 0-161.157 5.49 9196.622 9196.622 0 0 0-52.659 7.85 10746.238 10746.238 0 0 0-146.977 23.41Zm153.997 53.15c1.51-5.28 6.92-10.06 14.15-12.48.64-.21.68 12.09.63 13.08 14.3-1.67 27.929-5.27 42.419-6.4 21.54-1.69 43.169-2.79 64.769-3.85 43.359-2.14 86.778-3.46 130.177-4.28 14.32-.267 28.653-.49 43-.67-2.69-.46-2.57.32-5.26-.14.27-2.25 6.24-3.33 11.079-3.82a2387.92 2387.92 0 0 1 57.999-5.18c9.713-.747 19.433-1.437 29.16-2.07 4.23-.27 8.41-.76 12.59-.42a73.201 73.201 0 0 0 21.779-1.74c-4.86-1-7.48-5.27-5.1-8.29a47.015 47.015 0 0 0 14 11.77c2.333-4.26 4.64-8.523 6.92-12.79 1.88 3.693 3.753 7.387 5.62 11.08a14.11 14.11 0 0 1 3.17-6 10.518 10.518 0 0 1 8.069-2.88c3.18.27 5.83 2.67 4.52 4.63 10.882 0 21.772.49 32.572.28 62.35-1.22 129.28-1.67 190.56 5.59 10 1.18 19.83 2.67 29.33 4.59 4 .81 9 1.57 12.4 3 4.54 1.85 3.16 4.22 1.31 6.43-5 5.91-15.64 10.63-29.42 12 5.58-.55 12.51-.14 18.27-.15 7.34 0 14.67.017 22 .05 35.47.29 71.15-.17 107.22 2 48.89 2.95 97.77 6.26 146.41 11.11 9.13.91 19.7.44 27 4.45 2.37 1.29 7.43 2.62 9 0 .83-1.39-.55-2.91-1.69-4.23-4.08-4.72-5.55-10.4-4-15.67a6955.97 6955.97 0 0 1 10.1 15.8c1.4-3.88 5.35-7.27 10.62-9.1a23.13 23.13 0 0 1-4.18 12c2.23-2.22 7.37-2.93 10.57-1.22 3.2 1.71 3 5.61-.51 6.8 2.57-.86 8.13-.21 10.94 0 3.82.28 7.39 1.09 11.15 1.57 2.3.3 4.53.14 6.84.26 3.93.339 7.85.886 11.73 1.64 26.92 4.21 54.07 9.64 75.74 18.82 5.36 2.27 10.68 5.1 11.09 8.27.27 2.05-1.61 3.92-4.16 5.42a37.49 37.49 0 0 1-18.83 4.73c-2.21 0-22.29 2.51-22.65 1-.62-2.68-1.25-5.35-1.87-8-4.07 1.12-7.11 3.72-7.82 6.67-2.3-3.653-4.61-7.32-6.92-11-3.16 3.28 2.4 8.15-.33 11.6-2.93 3.7-10.18 1.8-15 2-15.44.59-31.33-.19-46.82-.71-13.52-.46-27.03-1.09-40.51-1.89 37.49 2.691 74.82 7.29 111.85 13.78 9.32 1.65 19.93 4.07 22.91 8.53 2.98 4.46-2.59 7.42-7.91 9-17.52 5.31-39.69 5.27-58.61 5.81-28.18.81-56.44.58-84.62.18-13.8-.187-27.59-.43-41.38-.73-6.32-.13-12.85.07-19-.89-2.28-.38-28.17-1.85-28.2-1.78l8-13.94c.53-.93 1-2.14-.13-2.82a4.829 4.829 0 0 0-2.84-.33c-8 .79-15.11 4.62-18.08 9.73.96-3.666.76-7.539-.56-11.09-5.63 2.7-8.53 7.79-7.13 12.45-5.92-4.873-11.86-9.73-17.82-14.57 2.48 7.21 9.1 13.77 18.09 17.94-25.36 4.16-51.21 3.29-77.16 2.93-75.14-1.08-151.15-3.47-224.53-16.17-6-1-12.59-2.41-15.14-5.17-2-2.19 1-5.16 5.32-5.7h-3.46l-10.86-.1c-2 0-3.72-.13-5.61-.2-2.37-.08-4.58-.08-7 0-26 .86-52.06 1.39-78.11 2-44.001 1.09-87.6 1-131.279 1.62-9.45.13-18.88.61-28.2-.22-4.72-.43-10 .64-14.699 1.12l-15.81 1.63a35.901 35.901 0 0 0 7.73-10.15c.75-1.51.85-3.71-1.41-4.1a6.002 6.002 0 0 0-3.1.56 59.007 59.007 0 0 0-18.07 10.93 28.662 28.662 0 0 1 .92-18.82c-5.88 4.35-8.79 10.46-7.81 16.28-6-7.667-12.026-15.333-18.079-23a79.599 79.599 0 0 0 12.829 29.26c-7.999.24-15.999 0-23.999.37-27.29 1.28-54.659 2.16-81.999 2.3-18.999.1-37.999-.16-56.998-.91-9.5-.373-18.99-.873-28.47-1.5a23.721 23.721 0 0 1-9.6-2.19c-.84-.37-10.83-1.93-10.43-.42l-3.459-12.89c-4.16 1.44-7.24 4.26-8.07 7.37-5.613-2.8-11.237-5.59-16.87-8.37-1.24 4.59 1.06 9.5 5.91 12.7a88.604 88.604 0 0 1-15.75-1c-4.79-.75-8.67-2.36-13.47-3.14-10.999-1.78-23.849-5.78-19.809-11.29 1.79-2.44 6.54-4.22 11.13-5.72a335.143 335.143 0 0 1 66.178-14.16c-20.559 2.35-41.089 4.84-61.728 6.78-10.4 1-21 2-31.43 2.4-4.2.15-8.35-.82-12.68-.81-4.81.008-9.61.457-14.339 1.34a22.301 22.301 0 0 0 2.22-14.3c-7.49 1.93-13.34 6.63-14.86 11.91-.873-4.34-1.737-8.673-2.59-13a11.002 11.002 0 0 0-2.53 9.93 319.482 319.482 0 0 1-24.529-12.54c2.679 7.25 8.789 13.83 17.209 18.57-8.75 1.38-15.699.72-24.319-.3-6.79-.81-13.78-.13-20.64-.68-7.11-.56-14.17-1.19-21.19-2.23a235.165 235.165 0 0 1-27.319-5.74c-4.8-1.31-10.38-3.72-10.08-7.57.3-3.85 5.89-5.72 10.63-6.86a852.709 852.709 0 0 1 173.797-22.88 40.144 40.144 0 0 0-3.73-5.18c-1.32-1.36-1.72-3.17-2.31-4.79a80.628 80.628 0 0 1-3.22-11.63c0-.24-.09-.47-.13-.71a130.647 130.647 0 0 0 20.299 17.7 18.845 18.845 0 0 1 4.1-14.15l4.2 15.96Z"/><path fill="url(#g)" d="M526.977 188.46a130.665 130.665 0 0 1-20.259-17.7c0 .24.09.47.13.71a80.628 80.628 0 0 0 3.22 11.63c.59 1.62 1 3.43 2.31 4.79a40.144 40.144 0 0 1 3.73 5.18 852.709 852.709 0 0 0-173.797 22.88c-4.74 1.14-10.34 3.13-10.63 6.86-.29 3.73 5.28 6.26 10.08 7.57a235.165 235.165 0 0 0 27.319 5.74c7 1 14.08 1.67 21.19 2.23 6.86.55 13.85-.13 20.64.68 8.62 1 15.569 1.68 24.319.3-8.42-4.74-14.529-11.32-17.209-18.57a355.063 355.063 0 0 0 24.429 12.65 10.996 10.996 0 0 1 2.53-9.93c.86 4.34 1.723 8.673 2.59 13 1.52-5.28 7.37-10 14.86-11.91.87 4.881.089 9.913-2.22 14.3a78.839 78.839 0 0 1 14.339-1.34c4.33 0 8.48 1 12.68.81 10.47-.37 21-1.43 31.43-2.4 20.639-1.94 41.169-4.43 61.728-6.78a335.143 335.143 0 0 0-66.178 14.16c-4.59 1.5-9.34 3.28-11.13 5.72-4 5.51 8.77 9.51 19.81 11.29 4.799.78 8.679 2.39 13.469 3.14a88.698 88.698 0 0 0 15.75 1c-4.85-3.2-7.15-8.11-5.91-12.7 5.64 2.78 11.263 5.57 16.87 8.37.83-3.11 3.91-5.93 8.07-7.37 1.16 4.293 2.313 8.59 3.46 12.89-.4-1.51 9.589.05 10.429.42a23.738 23.738 0 0 0 9.6 2.19c9.473.627 18.963 1.127 28.47 1.5 18.999.75 37.999 1 56.999.91 27.299-.14 54.668-1 81.998-2.3 8-.38 16-.13 23.999-.37a79.599 79.599 0 0 1-12.829-29.26 4699.23 4699.23 0 0 1 18.079 23c-1-5.82 1.93-11.93 7.81-16.28a28.662 28.662 0 0 0-.92 18.82 59.007 59.007 0 0 1 18.07-10.93 6.002 6.002 0 0 1 3.1-.56c2.26.39 2.16 2.59 1.41 4.1a35.901 35.901 0 0 1-7.73 10.15l15.81-1.63c4.68-.48 9.999-1.55 14.699-1.12 9.32.83 18.75.35 28.2.22 43.679-.58 87.298-.53 131.279-1.62 26-.64 52.1-1.17 78.11-2 2.42-.08 4.63-.08 7 0 1.89.07 3.64.19 5.61.2l10.86.1h3.46c1.04-.134 2.1-.114 3.14.06.13.002.25.022.38.06-.12 0-.25 0-.38-.06-.64-.06-1.89-.07-3.14-.06-4.31.54-7.35 3.51-5.32 5.7 2.55 2.76 9.12 4.13 15.14 5.17 73.38 12.7 149.39 15.09 224.53 16.17 26 .36 51.8 1.23 77.16-2.93-9-4.17-15.61-10.73-18.09-17.94 5.96 4.84 11.9 9.697 17.82 14.57-1.4-4.66 1.5-9.75 7.13-12.45a18.355 18.355 0 0 1 .56 11.09c3-5.11 10.08-8.94 18.08-9.73a4.829 4.829 0 0 1 2.84.33c1.1.68.66 1.89.13 2.82l-8 13.94c0-.07 25.92 1.4 28.2 1.78 6.17 1 12.7.76 19 .89 13.78.293 27.57.537 41.38.73 28.18.4 56.44.63 84.62-.18 18.92-.54 41.09-.5 58.61-5.81 5.32-1.62 10.9-4.57 7.91-9s-13.59-6.88-22.91-8.53a1106.353 1106.353 0 0 0-111.84-13.86c-6.61-.387-13.22-.813-19.82-1.28 6.61.36 13.22.787 19.82 1.28 13.49.793 26.99 1.423 40.51 1.89 15.49.52 31.38 1.3 46.82.71 4.83-.19 12.08 1.71 15-2 2.73-3.45-2.83-8.32.33-11.6 2.32 3.653 4.62 7.32 6.92 11 .71-3 3.75-5.55 7.82-6.67.62 2.67 1.25 5.34 1.87 8 .36 1.53 20.44-1 22.65-1a37.49 37.49 0 0 0 18.83-4.73c2.55-1.5 4.43-3.37 4.16-5.42-.41-3.17-5.73-6-11.08-8.27-21.68-9.18-48.83-14.61-75.75-18.82-3.88-.754-7.8-1.301-11.73-1.64-2.31-.12-4.54 0-6.84-.26-3.76-.48-7.33-1.29-11.15-1.57-2.81-.21-8.37-.86-10.94 0 3.55-1.19 3.71-5.1.51-6.8-3.2-1.7-8.34-1-10.57 1.22a23.13 23.13 0 0 0 4.18-12c-5.27 1.83-9.22 5.22-10.62 9.1-3.34-5.267-6.7-10.533-10.1-15.8-1.54 5.27-.07 10.95 4 15.67 1.14 1.32 2.52 2.84 1.69 4.23-1.57 2.62-6.63 1.29-9 0-7.33-4-17.9-3.54-27-4.45-48.64-4.85-97.52-8.16-146.41-11.11-36.07-2.18-71.75-1.72-107.22-2-7.33-.06-14.66-.077-22-.05-5.76 0-12.69-.4-18.27.15 13.78-1.35 24.45-6.07 29.42-12 1.85-2.21 3.23-4.58-1.31-6.43-3.41-1.39-8.38-2.15-12.4-3-9.5-1.92-19.35-3.41-29.33-4.59-61.28-7.26-128.21-6.81-190.56-5.59-10.8.21-21.69-.27-32.572-.28 1.31-2-1.34-4.36-4.519-4.63a10.525 10.525 0 0 0-8.07 2.88 14.11 14.11 0 0 0-3.17 6c-1.86-3.693-3.733-7.387-5.62-11.08-2.28 4.273-4.587 8.537-6.92 12.79a47.015 47.015 0 0 1-14-11.77c-2.38 3 .24 7.26 5.1 8.29a73.195 73.195 0 0 1-21.749 1.71c-4.18-.34-8.36.15-12.59.42-9.727.627-19.446 1.317-29.16 2.07a2374.893 2374.893 0 0 0-57.998 5.18c-4.84.49-10.81 1.57-11.08 3.82 2.69.46 2.57-.32 5.26.14-14.32.18-28.653.403-43 .67-43.399.82-86.818 2.14-130.177 4.28-21.6 1.06-43.229 2.16-64.769 3.85-14.49 1.13-28.119 4.73-42.419 6.4 0-1 0-13.29-.63-13.08-7.23 2.42-12.64 7.2-14.15 12.48l-4.23-16a18.83 18.83 0 0 0-4.05 14.19Z"/><path fill="url(#h)" d="M526.977 188.46a130.665 130.665 0 0 1-20.259-17.7c0 .24.09.47.13.71a80.628 80.628 0 0 0 3.22 11.63c.59 1.62 1 3.43 2.31 4.79a40.144 40.144 0 0 1 3.73 5.18 852.709 852.709 0 0 0-173.797 22.88c-4.74 1.14-10.34 3.13-10.63 6.86-.29 3.73 5.28 6.26 10.08 7.57a235.165 235.165 0 0 0 27.319 5.74c7 1 14.08 1.67 21.19 2.23 6.86.55 13.85-.13 20.64.68 8.62 1 15.569 1.68 24.319.3-8.42-4.74-14.529-11.32-17.209-18.57a355.063 355.063 0 0 0 24.429 12.65 10.996 10.996 0 0 1 2.53-9.93c.86 4.34 1.723 8.673 2.59 13 1.52-5.28 7.37-10 14.86-11.91.87 4.881.089 9.913-2.22 14.3a78.839 78.839 0 0 1 14.339-1.34c4.33 0 8.48 1 12.68.81 10.47-.37 21-1.43 31.43-2.4 20.639-1.94 41.169-4.43 61.728-6.78a335.143 335.143 0 0 0-66.178 14.16c-4.59 1.5-9.34 3.28-11.13 5.72-4 5.51 8.77 9.51 19.81 11.29 4.799.78 8.679 2.39 13.469 3.14a88.698 88.698 0 0 0 15.75 1c-4.85-3.2-7.15-8.11-5.91-12.7 5.64 2.78 11.263 5.57 16.87 8.37.83-3.11 3.91-5.93 8.07-7.37 1.16 4.293 2.313 8.59 3.46 12.89-.4-1.51 9.589.05 10.429.42a23.738 23.738 0 0 0 9.6 2.19c9.473.627 18.963 1.127 28.47 1.5 18.999.75 37.999 1 56.999.91 27.299-.14 54.668-1 81.998-2.3 8-.38 16-.13 23.999-.37a79.599 79.599 0 0 1-12.829-29.26 4699.23 4699.23 0 0 1 18.079 23c-1-5.82 1.93-11.93 7.81-16.28a28.662 28.662 0 0 0-.92 18.82 59.007 59.007 0 0 1 18.07-10.93 6.002 6.002 0 0 1 3.1-.56c2.26.39 2.16 2.59 1.41 4.1a35.901 35.901 0 0 1-7.73 10.15l15.81-1.63c4.68-.48 9.999-1.55 14.699-1.12 9.32.83 18.75.35 28.2.22 43.679-.58 87.298-.53 131.279-1.62 26-.64 52.1-1.17 78.11-2 2.42-.08 4.63-.08 7 0 1.89.07 3.64.19 5.61.2l10.86.1h3.46c1.04-.134 2.1-.114 3.14.06.13.002.25.022.38.06-.12 0-.25 0-.38-.06-.64-.06-1.89-.07-3.14-.06-4.31.54-7.35 3.51-5.32 5.7 2.55 2.76 9.12 4.13 15.14 5.17 73.38 12.7 149.39 15.09 224.53 16.17 26 .36 51.8 1.23 77.16-2.93-9-4.17-15.61-10.73-18.09-17.94 5.96 4.84 11.9 9.697 17.82 14.57-1.4-4.66 1.5-9.75 7.13-12.45a18.355 18.355 0 0 1 .56 11.09c3-5.11 10.08-8.94 18.08-9.73a4.829 4.829 0 0 1 2.84.33c1.1.68.66 1.89.13 2.82l-8 13.94c0-.07 25.92 1.4 28.2 1.78 6.17 1 12.7.76 19 .89 13.78.293 27.57.537 41.38.73 28.18.4 56.44.63 84.62-.18 18.92-.54 41.09-.5 58.61-5.81 5.32-1.62 10.9-4.57 7.91-9s-13.59-6.88-22.91-8.53a1106.353 1106.353 0 0 0-111.84-13.86c-6.61-.387-13.22-.813-19.82-1.28 6.61.36 13.22.787 19.82 1.28 13.49.793 26.99 1.423 40.51 1.89 15.49.52 31.38 1.3 46.82.71 4.83-.19 12.08 1.71 15-2 2.73-3.45-2.83-8.32.33-11.6 2.32 3.653 4.62 7.32 6.92 11 .71-3 3.75-5.55 7.82-6.67.62 2.67 1.25 5.34 1.87 8 .36 1.53 20.44-1 22.65-1a37.49 37.49 0 0 0 18.83-4.73c2.55-1.5 4.43-3.37 4.16-5.42-.41-3.17-5.73-6-11.08-8.27-21.68-9.18-48.83-14.61-75.75-18.82-3.88-.754-7.8-1.301-11.73-1.64-2.31-.12-4.54 0-6.84-.26-3.76-.48-7.33-1.29-11.15-1.57-2.81-.21-8.37-.86-10.94 0 3.55-1.19 3.71-5.1.51-6.8-3.2-1.7-8.34-1-10.57 1.22a23.13 23.13 0 0 0 4.18-12c-5.27 1.83-9.22 5.22-10.62 9.1-3.34-5.267-6.7-10.533-10.1-15.8-1.54 5.27-.07 10.95 4 15.67 1.14 1.32 2.52 2.84 1.69 4.23-1.57 2.62-6.63 1.29-9 0-7.33-4-17.9-3.54-27-4.45-48.64-4.85-97.52-8.16-146.41-11.11-36.07-2.18-71.75-1.72-107.22-2-7.33-.06-14.66-.077-22-.05-5.76 0-12.69-.4-18.27.15 13.78-1.35 24.45-6.07 29.42-12 1.85-2.21 3.23-4.58-1.31-6.43-3.41-1.39-8.38-2.15-12.4-3-9.5-1.92-19.35-3.41-29.33-4.59-61.28-7.26-128.21-6.81-190.56-5.59-10.8.21-21.69-.27-32.572-.28 1.31-2-1.34-4.36-4.519-4.63a10.525 10.525 0 0 0-8.07 2.88 14.11 14.11 0 0 0-3.17 6c-1.86-3.693-3.733-7.387-5.62-11.08-2.28 4.273-4.587 8.537-6.92 12.79a47.015 47.015 0 0 1-14-11.77c-2.38 3 .24 7.26 5.1 8.29a73.195 73.195 0 0 1-21.749 1.71c-4.18-.34-8.36.15-12.59.42-9.727.627-19.446 1.317-29.16 2.07a2374.893 2374.893 0 0 0-57.998 5.18c-4.84.49-10.81 1.57-11.08 3.82 2.69.46 2.57-.32 5.26.14-14.32.18-28.653.403-43 .67-43.399.82-86.818 2.14-130.177 4.28-21.6 1.06-43.229 2.16-64.769 3.85-14.49 1.13-28.119 4.73-42.419 6.4 0-1 0-13.29-.63-13.08-7.23 2.42-12.64 7.2-14.15 12.48l-4.23-16a18.83 18.83 0 0 0-4.05 14.19Z"/><path fill="url(#i)" d="M1111.21 261.19c-1.04-.174-2.1-.194-3.14-.06 1.25-.01 2.5 0 3.14.06Z"/><path fill="url(#j)" d="M1111.21 261.19c-1.04-.174-2.1-.194-3.14-.06 1.25-.01 2.5 0 3.14.06Z"/><path fill="url(#k)" d="M1545.08 253.85c-6.6-.493-13.21-.92-19.82-1.28 6.6.473 13.2.9 19.82 1.28Z"/><path fill="url(#l)" d="M1545.08 253.85c-6.6-.493-13.21-.92-19.82-1.28 6.6.473 13.2.9 19.82 1.28Z"/><path fill="url(#m)" d="M1913.26 247.21a382.29 382.29 0 0 1-22.15 6.15c-3.68.9-7.5 1.53-11.26 2.26l-5.93 1.16c-.71.13-5.52.7-5.7 1.11 1.49-3.333 2.98-6.667 4.46-10-6.69 1.21-12.34 5.09-14.49 9.94a77.806 77.806 0 0 0-14.24-19.32 27.44 27.44 0 0 0 6.29 18.83c.77.95 1.58 2.2.68 3.07-.68.65-2 .69-3.06.68-3.51 0-7.49-.52-10.84.35-2.96.616-5.98.901-9 .85-10.05.355-20.12.205-30.16-.45 13.12 5.32 24.4 13.12 32.5 22.44 2.41 2.77 4.61 6 3.93 9.2-.85 4-5.77 6.75-10.4 8.88-2.47 1.14-5 2.25-7.52 3.31a255.546 255.546 0 0 1-58.05 16.31 273.865 273.865 0 0 1-30.78 3.16c-5.17.23-10.35.29-15.53.27-7 0-14 .76-20.99 1.12-2.87.248-5.75.281-8.61.1-2.91-.29-6.36.41-9.27.66l-9.84.84-5 .44c-.79.07-4 0-4.55.4 3.31-2.6 5.96-5.949 7.73-9.77.47-1.05.82-2.3 0-3.22-1.38-1.5-4.48-.88-6.63 0a119.64 119.64 0 0 0-16.3 7.73c1-1.58 2-3.61.53-5-1.47-1.39-4.82-.88-6.32.56s-1.7 3.39-1.85 5.22c-7.92-3.873-15.86-7.737-23.8-11.59 4.35 6.24 12.5 10.92 21.63 12.42l-6 .07-12 .14c-2.63 0-4.9.72-7.45.9-.84.055-1.68.055-2.51 0-4.56-.26-9.12-.69-13.67-1-9.93-.8-19.85-1.67-29.77-2.54-19.43-1.73-38.86-3.52-58.32-5.08-10-.8-19.98-1.633-29.94-2.5-5.18-.453-10.36-.917-15.55-1.39l-7.18-.65a59.38 59.38 0 0 1-6-.56c23.27 4.74 44.85 14.07 62 26.78 2.64 2 5.32 4.21 5.78 7 .46 2.79-1.57 5.68-4.44 7.56s-6.47 3-10 4l-.83.24a406.727 406.727 0 0 1-42.47 9.32c-14.42 2.42-29 4.22-43.65 5.65-7.64.75-15.32 1.26-23 2-5 .48-8.84 2.91-13.74 3.52-7.62.868-15.33.653-22.9-.64-2-.33-4.27-.88-5.18-2.3-.79-1.25-.25-2.73.3-4 2.92-7.013 5.86-14.013 8.8-21-12.16 3.07-20.19 11.6-27.34 19.63a75.363 75.363 0 0 0 2.49-25.67c-6.23 5.75-9.66 13.2-9.56 20.65a216.939 216.939 0 0 1-22.08-35.37c-.79 17.06 5 34.26 16.24 49a46.037 46.037 0 0 1-12.63 3.68c-3.39.493-6.82.638-10.25.43-1.44-.181-2.9-.218-4.35-.11-1.17.16-2.26.42-3.47.49-9.5.53-19.15.43-28.67.43-9.86 0-19.71-.133-29.57-.4-19.32-.52-38.6-1.49-57.85-2.76l-3.54-.24c-23.92-1.62-47.78-3.66-71.64-5.78l-23.83-2.34c-7.54-.67-15.4-1.92-23-1.89-5 0-9.4 1.2-14.46.74-7.84-.7-15.67-1.58-23.5-2.36 3-.9 4.14-4.13 2.53-6.29-1.61-2.16-5.21-3.18-8.462-2.87a17.114 17.114 0 0 0-8.489 3.48c.65-2.22 1.279-4.6.18-6.72-1.1-2.12-4.71-3.62-7.2-2.35-3.06 1.57-2.27 5.89-5.69 6.94-2.66.8-5.35-1.19-6.54-3.17-1.19-1.98-2-4.33-4.51-5.39a18.883 18.883 0 0 0 5.42 9.62c-7.09-.08-14.6-.69-21.65-.11-2 .17-3.84.72-5.8 1a24.899 24.899 0 0 1-3.76.28c-6.679.05-13.439-.48-20.119-.65-8.5-.22-17.003-.35-25.51-.39-47.359-.27-94.658 1.83-141.907 3.95a81.2 81.2 0 0 0-8.28.42c-1.78.27-3.28.81-5.13.93-5.62.38-11.289.52-16.919.78 1.22-2.25 2.47-4.68 1.71-7.05-.76-2.37-4.52-4.26-7.23-3-2.44 1.17-2.79 4.18-5.51 4.89a4.739 4.739 0 0 1-5-2.05 7.466 7.466 0 0 1-.56-4.66 23.998 23.998 0 0 0-10.6 9.63 52.402 52.402 0 0 1-13.01-17.53 12.413 12.413 0 0 0 1.33 14.27l-20.439 3.59c-3.31.58-6.76 1-10 1.81-4.52 1.1-7.48.05-12.42-.35a491.608 491.608 0 0 0-23.669-1.43 685.434 685.434 0 0 0-23.74-.45c-2.12 0-23.049-.34-23.269.48 2-7.453 4.043-14.91 6.129-22.37-8.179 2.58-14.619 8.11-16.999 14.56a21.676 21.676 0 0 0-3.22-17.57c-5 5.61-7.29 12.51-6.49 19.22a192.076 192.076 0 0 0-34.159-17.93c5 4.127 10.223 8.083 15.669 11.87 5.28 3.68 11.27 6.86 16.43 10.59-7.87 1.42-15.41 1.4-22.79 4.2a30.526 30.526 0 0 1-7.859 2c-5.17.51-10.51.2-15.69.27-11.78.17-23.55.47-35.329.77-17.77.45-35.56.91-53.349.91-7.954 0-15.897-.107-23.83-.32-7-.2-14.34-.08-21.15-1.33a94.943 94.943 0 0 0-14.689-1.9c-6-.2-12.46-1.61-16.09-5.52-5.64-6.05-1.81-15.34-8-21.08a4660.725 4660.725 0 0 0-2.53 16 111.482 111.482 0 0 1-22.159-19.29 54.453 54.453 0 0 0 15.769 22 200.875 200.875 0 0 1-34.999-5.65c-5-1.28-9.94-3.27-15.21-3.87-10.809-1.24-20.219-6.81-28.899-11.49 3.333-2.667 6.666-5.307 10-7.92 2.55-2 5.13-4.78 8.44-6.12 3.77-1.53 8.559-2.52 12.449-3.83a273.336 273.336 0 0 1 57.159-12.55c-37.719 4.1-79.998 1.8-118.867 1.84-3.41 0-6.87.14-10.27-.14a47.012 47.012 0 0 0-7.49.42 30.54 30.54 0 0 1-16.52-3.34c-2.11-1.16-4-2.61-6.56-3.14-2.56-.53-5.87.39-6.19 2.34a2041.019 2041.019 0 0 0-7.419-13.91 12.372 12.372 0 0 0-3.72 9.69c-5.84-4.827-11.693-9.653-17.56-14.48a16.095 16.095 0 0 0 4.35 12.79 260.57 260.57 0 0 1-58.079-7.09c-5.41-1.3-11.53-3.42-12.62-7.59-1.09-4.17 3.59-8 8.09-10.67a152.352 152.352 0 0 1 20.88-10.44c3.66-1.51 7.42-2.94 11.269-4.15 7.7-2.43 15.33-5.13 23-7.73l15.42-5.24 8.87-3a27.921 27.921 0 0 1 4.37-1.48c-6 .59-12.39 1.41-18.41 1.18-1.82-.06-3.55-.52-5.38-.43a55.21 55.21 0 0 0-8.11 1.46l-6.44-15.63a17.003 17.003 0 0 0-4.7 11.3c-8.18-5.08-16.38-10.143-24.6-15.19 3.73 7.35 10.891 13.71 20 17.76a90.03 90.03 0 0 1-18.21-.32c-6.89-.83-12.829-3-19.479-4.3-15.21-3.08-32.71-10.19-32.11-21.89.53-10.42 15.25-17 28.25-21.25a877.412 877.412 0 0 1 136.108-32.64c5.279-.84 10.849-2.09 16.269-2.12 3.53 0 6.77.5 10.32.05 12-1.53 24-4.29 35.899-6.41 24.313-4.307 48.646-8.54 72.999-12.7a9468.108 9468.108 0 0 1 39.529-6.66c48.826-8.12 97.805-15.91 146.937-23.37a9196.622 9196.622 0 0 1 52.659-7.85l2.67-.4A2786.808 2786.808 0 0 0-.012 138.14v330a2352.09 2352.09 0 0 0 4.09 19.69c637.997-36.55 1277.542-40.17 1915.872-2.84V245.06l-1 .32c-1.85.62-3.77 1.28-5.69 1.83Z"/><path fill="url(#n)" d="M1339.62 105.11c-19.47-.467-38.95-.857-58.45-1.17 38.46 5.253 76.84 10.71 115.15 16.37 24.55 3.627 49.07 7.34 73.55 11.14 8.75 1.36 16.62 2.33 25.47 1.28 19.35-2.3 39.24 1.18 58.47 3 49.44 4.573 98.7 10.007 147.78 16.3 24.53 3.14 49.01 6.497 73.43 10.07 11.69 1.7 25 2.5 36.19 5.52 1.59.524 3.13 1.166 4.61 1.92 7.1 3 15.6 4.65 23.18 6.91 26.78 7.96 53.07 16.707 78.88 26.24l2.07.78v-58.95c-192.5-22.02-385.88-34.73-580.33-39.41Z"/></g><defs><linearGradient id="b" x1="258.763" x2="260.433" y1="10.27" y2="198.65" gradientUnits="userSpaceOnUse"><stop offset=".12" stop-color="#9CC700"/><stop offset="1" stop-color="#1F7209"/></linearGradient><linearGradient id="c" x1="1665.42" x2="1664.13" y1="54.987" y2="201.125" gradientUnits="userSpaceOnUse"><stop offset=".12" stop-color="#9CC700"/><stop offset="1" stop-color="#1F7209"/></linearGradient><linearGradient id="d" x1="715.436" x2="714.143" y1="54.987" y2="201.125" gradientUnits="userSpaceOnUse"><stop offset=".12" stop-color="#9CC700"/><stop offset="1" stop-color="#1F7209"/></linearGradient><linearGradient id="e" x1="1111.4" x2="1111.4" y1="141.905" y2="479.521" gradientUnits="userSpaceOnUse"><stop stop-color="#A3A32F"/><stop offset="1" stop-color="#496B22"/></linearGradient><linearGradient id="f" x1="980.909" x2="980.909" y1="83.56" y2="421.19" gradientUnits="userSpaceOnUse"><stop offset=".01" stop-color="#C5D225"/><stop offset=".84" stop-color="#6EAB1E"/></linearGradient><linearGradient id="g" x1="1407430" x2="1407430" y1="37769.7" y2="84593.5" gradientUnits="userSpaceOnUse"><stop stop-color="#A3A32F"/><stop offset="1" stop-color="#496B22"/></linearGradient><linearGradient id="h" x1="1020.84" x2="1020.84" y1="138.83" y2="292.2" gradientUnits="userSpaceOnUse"><stop offset=".2" stop-color="#D5E32B"/><stop offset=".82" stop-color="#B0D226"/></linearGradient><linearGradient id="i" x1="4592.38" x2="4592.38" y1="301.069" y2="350.892" gradientUnits="userSpaceOnUse"><stop stop-color="#A3A32F"/><stop offset="1" stop-color="#496B22"/></linearGradient><linearGradient id="j" x1="1111.99" x2="1105.19" y1="99.862" y2="566.167" gradientUnits="userSpaceOnUse"><stop stop-color="#C2C238"/><stop offset="1" stop-color="#496B22"/></linearGradient><linearGradient id="k" x1="31952.5" x2="31952.5" y1="599.757" y2="1031.92" gradientUnits="userSpaceOnUse"><stop stop-color="#A3A32F"/><stop offset="1" stop-color="#496B22"/></linearGradient><linearGradient id="l" x1="31995.1" x2="31994.5" y1="553.895" y2="1150.9" gradientUnits="userSpaceOnUse"><stop stop-color="#C2C238"/><stop offset="1" stop-color="#496B22"/></linearGradient><linearGradient id="m" x1="962.079" x2="958.749" y1="63.38" y2="455.14" gradientUnits="userSpaceOnUse"><stop offset=".15" stop-color="#A6C521"/><stop offset="1" stop-color="#3A8317"/></linearGradient><linearGradient id="n" x1="1024180" x2="1024120" y1="19826.8" y2="58821.4" gradientUnits="userSpaceOnUse"><stop offset=".15" stop-color="#A6C521"/><stop offset="1" stop-color="#3A8317"/></linearGradient><clipPath id="a"><path fill="#fff" d="M-111 0h2073.6v487.8H-111z"/></clipPath></defs></svg>